<svg width="24" height="24" viewBox="0 0 24 24" fill="none" xmlns="http://www.w3.org/2000/svg">
<rect width="24" height="24" fill="white"/>
<circle cx="12" cy="12" r="12" fill="#016FD0"/>
<mask id="mask0_59_171" style="mask-type:luminance" maskUnits="userSpaceOnUse" x="0" y="0" width="24" height="24">
<circle cx="12" cy="12" r="12" fill="white"/>
</mask>
<g mask="url(#mask0_59_171)">
<path d="M6.75 9.26369L8.81193 4.5H12.3778L13.548 7.16842V4.5H17.9807L18.6773 6.42866L19.3527 4.5H25.8471L25.8369 13.0578H11.8496L11.3019 11.7088H9.84134L9.2975 13.0578H6.75H5.13196L6.75 9.26369Z" fill="white"/>
<path d="M14.6659 11.7742V5.35583L17.2539 5.36532L18.7592 9.50345L20.2284 5.35583H22.7958V11.7742H21.1698V7.04487L19.4462 11.7742H18.0202L16.2919 7.04487V11.7742H14.6659Z" fill="#016FD0"/>
<path fill-rule="evenodd" clip-rule="evenodd" d="M6.75 11.7742L9.54344 5.35583H11.6612L14.452 11.7742H12.5933L12.0805 10.4889H9.0841L8.56867 11.7742H6.75ZM11.4903 9.09547L10.577 6.84957L9.66095 9.09547H11.4903Z" fill="#016FD0"/>
<path d="M9.30005 19.95V12.3463L9.30005 11.3922H11.651L12.9411 11.8811L15.502 12.225L18.378 12L19.4154 12.6595L20.3504 12.225H23.8459L25.283 11.3922L22.2377 15.5013L25.3878 19.95H20.3504L19.3717 18.6555L18.378 19.95H9.30005Z" fill="white"/>
<path d="M10.3698 18.8802V12.4619H15.7184V13.8976H12.0261V14.9955H15.6321V16.3467H12.0261V17.4868H15.7184V18.8802H10.3698Z" fill="#016FD0"/>
<path d="M15.9929 18.8802L18.5358 15.7107L15.9324 12.4619H17.9488L19.4993 14.4703L21.0551 12.4619H22.9925L20.4233 15.6711L22.9709 18.8802H20.9548L19.4493 16.9035L17.9804 18.8802H15.9929Z" fill="#016FD0"/>
</g>
</svg>
