<svg width="22" height="22" viewBox="0 0 22 22" fill="none" xmlns="http://www.w3.org/2000/svg">
<g clip-path="url(#clip0_605_7174)">
<path d="M18.3338 1.83334H8.55599V4.8889H9.77821V3.05557H18.3338C18.7004 3.05557 18.9449 3.30001 18.9449 3.66668V10.3889C18.9449 10.7556 18.7004 11 18.3338 11H10.3893V15.2778H7.15043L4.88932 17.05V15.2778H3.05599C2.68932 15.2778 2.44488 15.0333 2.44488 14.6667V7.94445C2.44488 7.57779 2.68932 7.33334 3.05599 7.33334H11.0004V6.11112H3.05599C2.0171 6.11112 1.22266 6.90557 1.22266 7.94445V14.6667C1.22266 15.7056 2.0171 16.5 3.05599 16.5H3.6671V19.6167L7.5171 16.5H11.6115V12.2222H18.3338C19.3727 12.2222 20.1671 11.4278 20.1671 10.3889V3.66668C20.1671 2.62779 19.3727 1.83334 18.3338 1.83334Z" fill="black"/>
<path d="M3.78906 13.9944H5.25573L5.6224 13.0167H7.51684L7.88351 13.9944H9.35017L7.2724 8.55554H5.80573L3.78906 13.9944ZM6.53906 10.0833L7.15017 11.9778H5.92795L6.53906 10.0833Z" fill="black"/>
<path d="M12.2227 10.3889C12.8949 10.3889 13.8115 10.2055 14.6671 9.77777C15.5227 10.2055 16.5004 10.3889 17.1115 10.3889V9.16666C17.1115 9.16666 16.5004 9.16666 15.8282 8.92221C16.5615 8.18888 17.1115 7.08888 17.1115 5.49999V4.88888H15.2782V3.66666H14.056V4.88888H12.2227V6.1111H15.8282C15.706 7.2111 15.2171 7.88332 14.6671 8.3111C14.3004 8.00555 13.9338 7.57777 13.6893 7.02777H12.406C12.6504 7.82221 13.0171 8.43332 13.506 8.92221C12.8949 9.16666 12.3449 9.16666 12.2227 9.16666V10.3889Z" fill="black"/>
</g>
<defs>
<clipPath id="clip0_605_7174">
<rect width="22" height="22" fill="white"/>
</clipPath>
</defs>
</svg>
