<svg viewBox="0 0 64 64" xmlns="http://www.w3.org/2000/svg"><circle cx="32" cy="32" fill="#2a5f9e" r="30"/><path d="m32 11.8.7 2.2h2.3l-1.8 1.4.7 2.2-1.9-1.4-1.9 1.4.7-2.2-1.8-1.4h2.3zm0 34 .7 2.2h2.3l-1.8 1.3.7 2.3-1.9-1.4-1.9 1.4.7-2.3-1.8-1.3h2.3zm8.4-2.8.7 2.2h2.4l-1.9 1.4.7 2.2-1.9-1.4-1.9 1.4.8-2.2-1.9-1.4h2.3zm5.8-5.8.7 2.2h2.4l-1.9 1.4.7 2.2-1.9-1.4-1.9 1.4.8-2.2-1.9-1.4h2.3zm2.8-8.4.7 2.2h2.3l-1.9 1.4.7 2.2-1.8-1.4-1.9 1.4.7-2.2-1.9-1.4h2.3zm-2.8-8.5.7 2.3h2.4l-1.9 1.3.7 2.2-1.9-1.3-1.9 1.3.8-2.2-1.9-1.3h2.3zm-5.8-5.8.7 2.3h2.4l-1.9 1.3.7 2.2-1.9-1.3-1.9 1.3.8-2.2-1.9-1.3h2.3zm-16.8 28.5-.7 2.2h-2.4l1.9 1.4-.7 2.2 1.9-1.4 1.9 1.4-.8-2.2 1.9-1.4h-2.3zm-5.8-5.8-.7 2.2h-2.4l1.9 1.4-.7 2.2 1.9-1.4 1.9 1.4-.8-2.2 1.9-1.4h-2.3zm-2.8-8.4-.7 2.2h-2.3l1.9 1.4-.7 2.2 1.8-1.4 1.9 1.4-.7-2.2 1.9-1.4h-2.3zm2.8-8.5-.7 2.3h-2.4l1.9 1.3-.7 2.2 1.9-1.3 1.9 1.3-.8-2.2 1.9-1.3h-2.3zm5.8-5.8-.7 2.3h-2.4l1.9 1.3-.7 2.2 1.9-1.3 1.9 1.3-.8-2.2 1.9-1.3h-2.3z" fill="#ffce31"/></svg>