<svg width="47" height="37" viewBox="0 0 47 37" fill="none" xmlns="http://www.w3.org/2000/svg">
<path d="M9.24411 36.5461V34.2013C9.24411 33.3022 8.69684 32.7161 7.75879 32.7161C7.28985 32.7161 6.78175 32.8724 6.42996 33.3805C6.1565 32.9506 5.76572 32.7161 5.17946 32.7161C4.78851 32.7161 4.3979 32.8333 4.0851 33.2632V32.7943H3.26437V36.5461H4.0851V34.4747C4.0851 33.8105 4.43689 33.4977 4.98416 33.4977C5.53108 33.4977 5.80489 33.8495 5.80489 34.4747V36.5461H6.62562V34.4747C6.62562 33.8105 7.01622 33.4977 7.52432 33.4977C8.07159 33.4977 8.34505 33.8495 8.34505 34.4747V36.5461H9.24411ZM21.3985 32.7943H20.0699V31.6609H19.2491V32.7943H18.5066V33.5367H19.249V35.2565C19.249 36.1164 19.6008 36.6243 20.5388 36.6243C20.8906 36.6243 21.2812 36.5071 21.555 36.3508L21.3204 35.6472C21.0859 35.8036 20.8124 35.8427 20.617 35.8427C20.2262 35.8427 20.0699 35.6083 20.0699 35.2173V33.5367H21.3985V32.7943ZM28.3553 32.716C27.8864 32.716 27.5737 32.9506 27.3783 33.2632V32.7943H26.5575V36.5461H27.3783V34.4357C27.3783 33.8105 27.6517 33.4587 28.1598 33.4587C28.3161 33.4587 28.5116 33.4979 28.6679 33.5369L28.9024 32.7553C28.7461 32.7161 28.5116 32.7161 28.3553 32.7161V32.716ZM17.8422 33.1069C17.4512 32.8333 16.9041 32.7161 16.3179 32.7161C15.38 32.7161 14.7547 33.1851 14.7547 33.9276C14.7547 34.5531 15.2237 34.9047 16.0444 35.022L16.4352 35.0612C16.8651 35.1391 17.0996 35.2565 17.0996 35.4519C17.0996 35.7254 16.787 35.9209 16.2397 35.9209C15.6926 35.9209 15.2627 35.7254 14.989 35.5301L14.5982 36.1553C15.0282 36.468 15.6145 36.6243 16.2005 36.6243C17.2949 36.6243 17.9203 36.1164 17.9203 35.4128C17.9203 34.7484 17.4122 34.3966 16.6305 34.2794L16.2397 34.2403C15.8879 34.2011 15.6144 34.1231 15.6144 33.8886C15.6144 33.615 15.8879 33.4587 16.3179 33.4587C16.787 33.4587 17.2559 33.654 17.4904 33.7713L17.8422 33.1069ZM39.6502 32.7161C39.1811 32.7161 38.8685 32.9506 38.673 33.2632V32.7943H37.8522V36.5461H38.673V34.4357C38.673 33.8105 38.9466 33.4587 39.4545 33.4587C39.611 33.4587 39.8065 33.4979 39.9628 33.5369L40.1973 32.7553C40.041 32.7161 39.8065 32.7161 39.6502 32.7161ZM29.176 34.6702C29.176 35.8036 29.9576 36.6243 31.1693 36.6243C31.7164 36.6243 32.1072 36.5071 32.4979 36.1945L32.1072 35.5301C31.7945 35.7646 31.4819 35.8817 31.1301 35.8817C30.4657 35.8817 29.9968 35.4128 29.9968 34.6702C29.9968 33.9668 30.4657 33.4977 31.1301 33.4587C31.4819 33.4587 31.7945 33.5758 32.1072 33.8105L32.4979 33.1461C32.1072 32.8333 31.7164 32.7161 31.1693 32.7161C29.9576 32.7161 29.176 33.5369 29.176 34.6702ZM36.7581 34.6702V32.7943H35.9373V33.2632C35.6637 32.9116 35.2729 32.7161 34.7648 32.7161C33.7096 32.7161 32.8889 33.5369 32.8889 34.6702C32.8889 35.8036 33.7096 36.6243 34.7648 36.6243C35.3119 36.6243 35.7029 36.429 35.9373 36.0772V36.5461H36.7581V34.6702ZM33.7486 34.6702C33.7486 34.0058 34.1786 33.4587 34.882 33.4587C35.5464 33.4587 36.0155 33.9668 36.0155 34.6702C36.0155 35.3346 35.5464 35.8817 34.882 35.8817C34.1786 35.8425 33.7486 35.3346 33.7486 34.6702ZM23.939 32.7161C22.8447 32.7161 22.0629 33.4977 22.0629 34.6702C22.0629 35.8427 22.8445 36.6243 23.978 36.6243C24.5251 36.6243 25.0724 36.468 25.5023 36.1164L25.1114 35.5301C24.7988 35.7646 24.408 35.9209 24.0172 35.9209C23.5091 35.9209 23.001 35.6864 22.8837 35.0218H25.6587V34.7094C25.6978 33.4977 24.9942 32.7161 23.9389 32.7161H23.939ZM23.939 33.4195C24.447 33.4195 24.7989 33.7323 24.8769 34.3186H22.9228C23.001 33.8105 23.3528 33.4195 23.939 33.4195ZM44.3009 34.6702V31.3091H43.4802V33.2632C43.2066 32.9116 42.8158 32.7161 42.3077 32.7161C41.2525 32.7161 40.4317 33.5369 40.4317 34.6702C40.4317 35.8036 41.2525 36.6243 42.3077 36.6243C42.8549 36.6243 43.2457 36.429 43.4802 36.0772V36.5461H44.3009V34.6702ZM41.2916 34.6702C41.2916 34.0058 41.7214 33.4587 42.425 33.4587C43.0894 33.4587 43.5583 33.9668 43.5583 34.6702C43.5583 35.3346 43.0894 35.8817 42.425 35.8817C41.7214 35.8425 41.2916 35.3346 41.2916 34.6702ZM13.8557 34.6702V32.7943H13.0349V33.2632C12.7613 32.9116 12.3705 32.7161 11.8624 32.7161C10.8072 32.7161 9.9865 33.5369 9.9865 34.6702C9.9865 35.8036 10.8072 36.6243 11.8624 36.6243C12.4097 36.6243 12.8005 36.429 13.0349 36.0772V36.5461H13.8557V34.6702ZM10.8072 34.6702C10.8072 34.0058 11.2372 33.4587 11.9406 33.4587C12.605 33.4587 13.0741 33.9668 13.0741 34.6702C13.0741 35.3346 12.605 35.8817 11.9406 35.8817C11.2372 35.8425 10.8072 35.3346 10.8072 34.6702Z" fill="white"/>
<path d="M18.35 14.3517C18.35 9.85733 20.4604 5.87084 23.7041 3.29133C21.3203 1.41541 18.311 0.282059 15.0281 0.282059C7.25041 0.282059 0.958221 6.57424 0.958221 14.3517C0.958221 22.1291 7.25041 28.4214 15.0279 28.4214C18.3108 28.4214 21.3201 27.2881 23.7041 25.412C20.4604 22.8716 18.35 18.8462 18.35 14.3517Z" fill="#EB001B"/>
<path d="M46.489 14.3517C46.489 22.129 40.1968 28.4214 32.4193 28.4214C29.1364 28.4214 26.1271 27.288 23.7431 25.4119C27.026 22.8326 29.0974 18.8461 29.0974 14.3517C29.0974 9.85728 26.9868 5.87079 23.7431 3.29129C26.127 1.41536 29.1364 0.282013 32.4193 0.282013C40.1968 0.282013 46.4892 6.61336 46.4892 14.3517H46.489Z" fill="#F79E1B"/>
</svg>
