<svg width="29" height="29" viewBox="0 0 29 29" fill="none" xmlns="http://www.w3.org/2000/svg">
<path d="M19.9377 2.71875V4.53125H23.1666L20.108 7.61794C19.0148 6.79244 17.6826 6.34518 16.3127 6.34375C14.618 6.34375 13.0357 7.01437 11.8376 8.21334C11.2454 8.7984 10.7752 9.4952 10.4544 10.2633C10.1335 11.0315 9.96833 11.8557 9.96841 12.6881C9.9685 13.5206 10.1338 14.3448 10.4549 15.1128C10.7759 15.8809 11.2462 16.5776 11.8385 17.1626C12.6269 17.951 13.5658 18.5174 14.6134 18.8047C14.7168 18.7258 14.8328 18.6434 14.9252 18.5509C15.305 18.1646 15.578 17.6862 15.7173 17.1626C14.7306 17.0408 13.8133 16.5918 13.1118 15.8875C12.2563 15.0329 11.7814 13.8982 11.7814 12.6875C11.7814 11.4768 12.2572 10.3439 13.1136 9.48844C13.9673 8.63022 15.1019 8.15625 16.3127 8.15625C17.5234 8.15625 18.6571 8.63203 19.5117 9.48844C19.9346 9.90687 20.2701 10.4051 20.4988 10.9543C20.7275 11.5035 20.8448 12.0926 20.8439 12.6875C20.8439 13.4714 20.6219 14.2009 20.2494 14.8679C20.3364 15.3356 20.3908 15.8267 20.3908 16.3125C20.3908 16.7638 20.3527 17.2097 20.2775 17.6447C20.4587 17.497 20.6201 17.3293 20.7877 17.1626C21.9858 15.9627 22.6564 14.3822 22.6564 12.6875C22.6564 11.3009 22.1997 9.98325 21.3822 8.89213L24.4689 5.83444V9.0625H26.2814V2.71875H19.9377ZM14.3869 10.1953C14.2836 10.2742 14.1676 10.3566 14.0751 10.4491C13.6836 10.8424 13.4281 11.3191 13.2831 11.8383C14.2709 11.9652 15.1726 12.3966 15.8885 13.1125C16.7449 13.9671 17.2207 15.1018 17.2207 16.3116C17.2207 17.5214 16.7449 18.6552 15.8885 19.5107C15.033 20.3698 13.8984 20.8438 12.6877 20.8438C11.4769 20.8438 10.3432 20.368 9.48859 19.5116C9.06542 19.0934 8.7297 18.5951 8.50098 18.0459C8.27227 17.4967 8.15513 16.9074 8.15641 16.3125C8.15641 15.5286 8.37844 14.7991 8.75091 14.1321C8.65991 13.6558 8.61259 13.1723 8.60953 12.6875C8.60953 12.2362 8.64759 11.7903 8.72281 11.3553C8.54156 11.503 8.38116 11.6707 8.21259 11.8383C7.01634 13.0355 6.34391 14.6178 6.34391 16.3125C6.34391 17.6991 6.80066 19.0168 7.61809 20.1079L6.09016 21.6367L4.27766 19.8242L2.97266 21.0984L4.78516 22.9109L2.97266 24.7234L4.27766 26.0284L6.09016 24.2159L7.90266 26.0284L9.17594 24.7234L7.36344 22.9109L8.89319 21.383C9.98536 22.2097 11.3178 22.6569 12.6877 22.6562C14.3823 22.6562 15.9647 21.9856 17.1627 20.7867C18.3608 19.5895 19.0314 18.0072 19.0314 16.3125C19.0314 14.6178 18.3608 13.0373 17.1618 11.8374C16.3734 11.049 15.4345 10.4826 14.3869 10.1953Z" fill="black"/>
</svg>
