<svg width="99" height="14" viewBox="0 0 99 14" fill="none" xmlns="http://www.w3.org/2000/svg">
<path d="M6.75115 3.74645C6.71138 3.34541 6.54069 3.03385 6.23908 2.81179C5.93747 2.58972 5.52814 2.47869 5.0111 2.47869C4.65977 2.47869 4.36313 2.52841 4.12118 2.62784C3.87923 2.72396 3.69363 2.85819 3.56436 3.03054C3.43842 3.20289 3.37544 3.39844 3.37544 3.61719C3.36882 3.79948 3.40693 3.95857 3.48979 4.09446C3.57596 4.23035 3.69363 4.34801 3.84277 4.44744C3.99192 4.54356 4.16427 4.62808 4.35982 4.70099C4.55537 4.7706 4.76418 4.83026 4.98624 4.87997L5.90101 5.09872C6.34514 5.19815 6.75281 5.33073 7.12402 5.49645C7.49524 5.66217 7.81673 5.866 8.08851 6.10795C8.36029 6.34991 8.57076 6.63494 8.7199 6.96307C8.87237 7.29119 8.95025 7.66738 8.95357 8.09162C8.95025 8.71473 8.79116 9.25497 8.4763 9.71236C8.16474 10.1664 7.71399 10.5194 7.12402 10.7713C6.53738 11.0199 5.82975 11.1442 5.00115 11.1442C4.17918 11.1442 3.46328 11.0182 2.85343 10.7663C2.24689 10.5144 1.77293 10.1416 1.43155 9.64773C1.09348 9.15057 0.916164 8.53575 0.899592 7.80327H2.98269C3.00589 8.14465 3.10366 8.42969 3.27601 8.65838C3.45168 8.88376 3.68534 9.05445 3.97701 9.17045C4.27199 9.28314 4.60508 9.33949 4.9763 9.33949C5.34088 9.33949 5.6574 9.28646 5.92587 9.1804C6.19765 9.07434 6.40811 8.92685 6.55726 8.73793C6.70641 8.54901 6.78098 8.33191 6.78098 8.08665C6.78098 7.85795 6.71304 7.66572 6.57715 7.50994C6.44457 7.35417 6.24902 7.22159 5.9905 7.11222C5.73529 7.00284 5.42208 6.90341 5.05087 6.81392L3.94221 6.53551C3.08378 6.3267 2.40598 6.00024 1.90882 5.55611C1.41167 5.11198 1.16474 4.51373 1.16806 3.76136C1.16474 3.14489 1.32881 2.6063 1.66025 2.1456C1.995 1.6849 2.45404 1.32528 3.03738 1.06676C3.62071 0.808238 4.28359 0.678977 5.02601 0.678977C5.78169 0.678977 6.44126 0.808238 7.00471 1.06676C7.57147 1.32528 8.01228 1.6849 8.32715 2.1456C8.64202 2.6063 8.80442 3.13991 8.81436 3.74645H6.75115ZM14.4236 3.36364V4.95455H9.82484V3.36364H14.4236ZM10.8689 1.53409H12.9868V8.65341C12.9868 8.84896 13.0166 9.00142 13.0763 9.1108C13.1359 9.21686 13.2188 9.29143 13.3248 9.33452C13.4342 9.3776 13.5602 9.39915 13.7027 9.39915C13.8021 9.39915 13.9015 9.39086 14.001 9.37429C14.1004 9.3544 14.1766 9.33949 14.2297 9.32955L14.5628 10.9055C14.4567 10.9387 14.3076 10.9768 14.1153 11.0199C13.9231 11.0663 13.6894 11.0945 13.4143 11.1044C12.9039 11.1243 12.4565 11.0563 12.072 10.9006C11.6908 10.7448 11.3942 10.5028 11.1821 10.1747C10.97 9.84659 10.8656 9.43229 10.8689 8.93182V1.53409ZM17.9807 11.1442C17.4935 11.1442 17.0593 11.0597 16.6782 10.8906C16.297 10.7183 15.9954 10.4647 15.7733 10.13C15.5546 9.7919 15.4452 9.37098 15.4452 8.86719C15.4452 8.44295 15.5231 8.08665 15.6789 7.7983C15.8347 7.50994 16.0468 7.27794 16.3153 7.10227C16.5837 6.92661 16.8886 6.79403 17.23 6.70455C17.5747 6.61506 17.936 6.55208 18.3138 6.51562C18.758 6.46922 19.1159 6.42614 19.3877 6.38636C19.6595 6.34328 19.8567 6.2803 19.9793 6.19744C20.1019 6.11458 20.1633 5.99195 20.1633 5.82955V5.79972C20.1633 5.48485 20.0638 5.24124 19.865 5.06889C19.6694 4.89654 19.391 4.81037 19.0297 4.81037C18.6486 4.81037 18.3453 4.89489 18.1199 5.06392C17.8946 5.22964 17.7454 5.43845 17.6725 5.69034L15.7137 5.53125C15.8131 5.06723 16.0087 4.66619 16.3003 4.32812C16.592 3.98674 16.9682 3.7249 17.4289 3.54261C17.8929 3.35701 18.4298 3.2642 19.0397 3.2642C19.4639 3.2642 19.8699 3.31392 20.2577 3.41335C20.6488 3.51278 20.9952 3.6669 21.2968 3.87571C21.6017 4.08452 21.842 4.35298 22.0177 4.68111C22.1933 5.00592 22.2812 5.39536 22.2812 5.84943V11H20.2726V9.94105H20.213C20.0903 10.1797 19.9263 10.3902 19.7208 10.5724C19.5153 10.7514 19.2684 10.8923 18.98 10.995C18.6917 11.0945 18.3586 11.1442 17.9807 11.1442ZM18.5873 9.68253C18.8988 9.68253 19.1739 9.62121 19.4126 9.49858C19.6512 9.37263 19.8385 9.2036 19.9743 8.99148C20.1102 8.77936 20.1782 8.53906 20.1782 8.2706V7.46023C20.1119 7.50331 20.0207 7.54309 19.9047 7.57955C19.7921 7.61269 19.6644 7.64418 19.5219 7.67401C19.3794 7.70052 19.2369 7.72538 19.0944 7.74858C18.9519 7.76847 18.8226 7.78669 18.7066 7.80327C18.458 7.83973 18.2409 7.89773 18.0553 7.97727C17.8697 8.05682 17.7255 8.16454 17.6228 8.30043C17.52 8.433 17.4687 8.59872 17.4687 8.79759C17.4687 9.08594 17.5731 9.30634 17.7819 9.45881C17.994 9.60795 18.2625 9.68253 18.5873 9.68253ZM23.9243 11V3.36364H25.9775V4.69602H26.0571C26.1963 4.22206 26.43 3.86411 26.7581 3.62216C27.0862 3.37689 27.464 3.25426 27.8916 3.25426C27.9977 3.25426 28.112 3.26089 28.2346 3.27415C28.3573 3.28741 28.465 3.30563 28.5578 3.32883V5.2081C28.4584 5.17827 28.3208 5.15175 28.1452 5.12855C27.9695 5.10535 27.8087 5.09375 27.6629 5.09375C27.3514 5.09375 27.0729 5.1617 26.8277 5.29759C26.5857 5.43016 26.3935 5.61577 26.251 5.8544C26.1118 6.09304 26.0422 6.36813 26.0422 6.67969V11H23.9243ZM34.0974 3.36364V4.95455H29.4987V3.36364H34.0974ZM30.5427 1.53409H32.6606V8.65341C32.6606 8.84896 32.6904 9.00142 32.7501 9.1108C32.8097 9.21686 32.8926 9.29143 32.9987 9.33452C33.108 9.3776 33.234 9.39915 33.3765 9.39915C33.4759 9.39915 33.5754 9.39086 33.6748 9.37429C33.7742 9.3544 33.8505 9.33949 33.9035 9.32955L34.2366 10.9055C34.1305 10.9387 33.9814 10.9768 33.7892 11.0199C33.5969 11.0663 33.3633 11.0945 33.0882 11.1044C32.5777 11.1243 32.1303 11.0563 31.7458 10.9006C31.3647 10.7448 31.068 10.5028 30.8559 10.1747C30.6438 9.84659 30.5394 9.43229 30.5427 8.93182V1.53409ZM38.7172 11V3.36364H40.7705V4.69602H40.8501C40.9893 4.22206 41.2229 3.86411 41.551 3.62216C41.8792 3.37689 42.257 3.25426 42.6846 3.25426C42.7906 3.25426 42.905 3.26089 43.0276 3.27415C43.1502 3.28741 43.258 3.30563 43.3508 3.32883V5.2081C43.2513 5.17827 43.1138 5.15175 42.9381 5.12855C42.7625 5.10535 42.6017 5.09375 42.4559 5.09375C42.1443 5.09375 41.8659 5.1617 41.6206 5.29759C41.3787 5.43016 41.1865 5.61577 41.0439 5.8544C40.9047 6.09304 40.8351 6.36813 40.8351 6.67969V11H38.7172ZM47.5704 11.1491C46.7849 11.1491 46.1088 10.9901 45.542 10.6719C44.9785 10.3504 44.5444 9.89631 44.2394 9.30966C43.9345 8.7197 43.782 8.02202 43.782 7.21662C43.782 6.43111 43.9345 5.74171 44.2394 5.14844C44.5444 4.55516 44.9736 4.0928 45.5271 3.76136C46.0839 3.42992 46.7368 3.2642 47.4859 3.2642C47.9897 3.2642 48.4587 3.34541 48.8928 3.50781C49.3303 3.6669 49.7115 3.9072 50.0363 4.22869C50.3644 4.55019 50.6196 4.95455 50.8019 5.44176C50.9842 5.92566 51.0754 6.49242 51.0754 7.14205V7.72372H44.6272V6.41122H49.0818C49.0818 6.1063 49.0155 5.83617 48.8829 5.60085C48.7503 5.36553 48.5664 5.18158 48.3311 5.04901C48.099 4.91312 47.8289 4.84517 47.5207 4.84517C47.1992 4.84517 46.9142 4.91974 46.6656 5.06889C46.4203 5.21473 46.2281 5.41193 46.0889 5.66051C45.9497 5.90578 45.8784 6.17921 45.8751 6.48082V7.72869C45.8751 8.10653 45.9447 8.433 46.0839 8.7081C46.2264 8.98319 46.4269 9.19531 46.6855 9.34446C46.944 9.49361 47.2506 9.56818 47.6052 9.56818C47.8405 9.56818 48.056 9.53504 48.2515 9.46875C48.4471 9.40246 48.6144 9.30303 48.7536 9.17045C48.8928 9.03788 48.9989 8.87547 49.0718 8.68324L51.0306 8.8125C50.9312 9.28314 50.7274 9.69413 50.4191 10.0455C50.1142 10.3935 49.7198 10.6652 49.2359 10.8608C48.7553 11.053 48.2001 11.1491 47.5704 11.1491ZM55.9078 11.1491C55.1256 11.1491 54.4527 10.9834 53.8893 10.652C53.3292 10.3172 52.8983 9.85322 52.5967 9.25994C52.2984 8.66667 52.1492 7.9839 52.1492 7.21165C52.1492 6.42945 52.3 5.74337 52.6017 5.15341C52.9066 4.56013 53.3391 4.09777 53.8992 3.76633C54.4594 3.43158 55.1256 3.2642 55.8978 3.2642C56.564 3.2642 57.1473 3.38518 57.6478 3.62713C58.1483 3.86908 58.5444 4.20881 58.836 4.64631C59.1277 5.08381 59.2884 5.59754 59.3183 6.1875H57.3197C57.2633 5.80634 57.1142 5.49976 56.8722 5.26776C56.6336 5.03243 56.3204 4.91477 55.9326 4.91477C55.6045 4.91477 55.3178 5.00426 55.0725 5.18324C54.8306 5.3589 54.6417 5.61577 54.5058 5.95384C54.3699 6.2919 54.3019 6.70123 54.3019 7.18182C54.3019 7.66903 54.3682 8.08333 54.5008 8.42472C54.6367 8.7661 54.8273 9.02628 55.0725 9.20526C55.3178 9.38423 55.6045 9.47372 55.9326 9.47372C56.1746 9.47372 56.3917 9.42401 56.5839 9.32457C56.7794 9.22514 56.9402 9.08097 57.0661 8.89205C57.1954 8.69981 57.2799 8.46946 57.3197 8.20099H59.3183C59.2851 8.78433 59.126 9.29806 58.841 9.74219C58.5593 10.183 58.1698 10.5277 57.6727 10.7763C57.1755 11.0249 56.5872 11.1491 55.9078 11.1491ZM64.1246 11.1491C63.3523 11.1491 62.6845 10.9851 62.121 10.657C61.5609 10.3255 61.1283 9.86482 60.8234 9.27486C60.5185 8.68158 60.366 7.99384 60.366 7.21165C60.366 6.42282 60.5185 5.73343 60.8234 5.14347C61.1283 4.55019 61.5609 4.08949 62.121 3.76136C62.6845 3.42992 63.3523 3.2642 64.1246 3.2642C64.8968 3.2642 65.563 3.42992 66.1231 3.76136C66.6866 4.08949 67.1208 4.55019 67.4257 5.14347C67.7306 5.73343 67.8831 6.42282 67.8831 7.21165C67.8831 7.99384 67.7306 8.68158 67.4257 9.27486C67.1208 9.86482 66.6866 10.3255 66.1231 10.657C65.563 10.9851 64.8968 11.1491 64.1246 11.1491ZM64.1345 9.50852C64.4858 9.50852 64.7791 9.40909 65.0145 9.21023C65.2498 9.00805 65.4271 8.73295 65.5464 8.38494C65.6691 8.03693 65.7304 7.64086 65.7304 7.19673C65.7304 6.7526 65.6691 6.35653 65.5464 6.00852C65.4271 5.66051 65.2498 5.38542 65.0145 5.18324C64.7791 4.98106 64.4858 4.87997 64.1345 4.87997C63.7799 4.87997 63.4816 4.98106 63.2396 5.18324C63.001 5.38542 62.8203 5.66051 62.6977 6.00852C62.5784 6.35653 62.5187 6.7526 62.5187 7.19673C62.5187 7.64086 62.5784 8.03693 62.6977 8.38494C62.8203 8.73295 63.001 9.00805 63.2396 9.21023C63.4816 9.40909 63.7799 9.50852 64.1345 9.50852ZM76.1334 3.36364L73.4637 11H71.0773L68.4076 3.36364H70.6448L72.2307 8.82741H72.3103L73.8912 3.36364H76.1334ZM80.4513 11.1491C79.6657 11.1491 78.9896 10.9901 78.4229 10.6719C77.8594 10.3504 77.4252 9.89631 77.1203 9.30966C76.8154 8.7197 76.6629 8.02202 76.6629 7.21662C76.6629 6.43111 76.8154 5.74171 77.1203 5.14844C77.4252 4.55516 77.8544 4.0928 78.4079 3.76136C78.9648 3.42992 79.6177 3.2642 80.3667 3.2642C80.8705 3.2642 81.3395 3.34541 81.7737 3.50781C82.2112 3.6669 82.5924 3.9072 82.9172 4.22869C83.2453 4.55019 83.5005 4.95455 83.6828 5.44176C83.8651 5.92566 83.9562 6.49242 83.9562 7.14205V7.72372H77.5081V6.41122H81.9626C81.9626 6.1063 81.8963 5.83617 81.7638 5.60085C81.6312 5.36553 81.4472 5.18158 81.2119 5.04901C80.9799 4.91312 80.7098 4.84517 80.4015 4.84517C80.08 4.84517 79.795 4.91974 79.5464 5.06889C79.3012 5.21473 79.1089 5.41193 78.9697 5.66051C78.8305 5.90578 78.7593 6.17921 78.7559 6.48082V7.72869C78.7559 8.10653 78.8256 8.433 78.9648 8.7081C79.1073 8.98319 79.3078 9.19531 79.5663 9.34446C79.8248 9.49361 80.1314 9.56818 80.4861 9.56818C80.7214 9.56818 80.9368 9.53504 81.1324 9.46875C81.3279 9.40246 81.4953 9.30303 81.6345 9.17045C81.7737 9.03788 81.8798 8.87547 81.9527 8.68324L83.9115 8.8125C83.8121 9.28314 83.6082 9.69413 83.3 10.0455C82.9951 10.3935 82.6006 10.6652 82.1167 10.8608C81.6362 11.053 81.081 11.1491 80.4513 11.1491ZM85.3383 11V3.36364H87.3916V4.69602H87.4711C87.6104 4.22206 87.844 3.86411 88.1721 3.62216C88.5003 3.37689 88.8781 3.25426 89.3057 3.25426C89.4117 3.25426 89.5261 3.26089 89.6487 3.27415C89.7713 3.28741 89.8791 3.30563 89.9719 3.32883V5.2081C89.8724 5.17827 89.7349 5.15175 89.5592 5.12855C89.3836 5.10535 89.2228 5.09375 89.077 5.09375C88.7654 5.09375 88.487 5.1617 88.2417 5.29759C87.9998 5.43016 87.8076 5.61577 87.665 5.8544C87.5258 6.09304 87.4562 6.36813 87.4562 6.67969V11H85.3383ZM92.6068 13.8636C92.3383 13.8636 92.0864 13.8421 91.8511 13.799C91.6191 13.7592 91.4269 13.7079 91.2744 13.6449L91.7517 12.0639C92.0003 12.1402 92.224 12.1816 92.4229 12.1882C92.625 12.1948 92.799 12.1484 92.9449 12.049C93.094 11.9496 93.215 11.7805 93.3078 11.5419L93.4321 11.2188L90.6927 3.36364H92.92L94.501 8.97159H94.5805L96.1764 3.36364H98.4186L95.4506 11.8253C95.308 12.2363 95.1141 12.5942 94.8689 12.8991C94.6269 13.2074 94.3203 13.4444 93.9491 13.6101C93.5779 13.7791 93.1305 13.8636 92.6068 13.8636Z" fill="white"/>
</svg>
