<svg width="169" height="44" viewBox="0 0 169 44" fill="none" xmlns="http://www.w3.org/2000/svg">
<rect width="44" height="44" rx="22" fill="black"/>
<mask id="mask0_0_927" style="mask-type:luminance" maskUnits="userSpaceOnUse" x="0" y="0" width="44" height="44">
<rect width="44" height="44" rx="22" fill="white"/>
</mask>
<g mask="url(#mask0_0_927)">
<rect width="44" height="44" fill="#0052FF"/>
<rect x="12.7188" y="9.625" width="7.21875" height="4.125" fill="white"/>
<path d="M15.125 32.3125V11.6875H23.9973C25.5228 11.6875 26.8577 11.9896 28.0018 12.5939C29.146 13.1981 30.0359 14.0474 30.6715 15.1418C31.3072 16.2361 31.625 17.5151 31.625 18.9788C31.625 20.4558 31.2988 21.7348 30.6464 22.8157C29.9941 23.8967 29.0807 24.7292 27.9065 25.3133C26.7322 25.8974 25.3622 26.1895 23.7965 26.1895H18.4973V21.8389H22.6724C23.3282 21.8389 23.8885 21.7231 24.3536 21.4914C24.8186 21.2598 25.1766 20.9291 25.4275 20.4995C25.6784 20.0698 25.8038 19.5629 25.8038 18.9788C25.8038 18.3879 25.6784 17.8827 25.4275 17.4631C25.1766 17.0435 24.8186 16.7212 24.3536 16.4963C23.8885 16.2714 23.3282 16.1589 22.6724 16.1589H20.7053V32.3125H15.125Z" fill="white"/>
</g>
<path d="M62.8608 28H56.9844V12.7273H62.8011C64.3722 12.7273 65.7294 13.033 66.8729 13.6445C68.0213 14.2511 68.9063 15.1261 69.5277 16.2695C70.1541 17.408 70.4673 18.7727 70.4673 20.3636C70.4673 21.9545 70.1566 23.3217 69.5352 24.4652C68.9137 25.6037 68.0337 26.4787 66.8952 27.0902C65.7567 27.6967 64.4119 28 62.8608 28ZM61.1307 24.4801H62.7116C63.4673 24.4801 64.1112 24.3583 64.6431 24.1147C65.18 23.8711 65.5877 23.451 65.8661 22.8544C66.1495 22.2578 66.2912 21.4276 66.2912 20.3636C66.2912 19.2997 66.147 18.4695 65.8587 17.8729C65.5753 17.2763 65.1577 16.8562 64.6058 16.6126C64.0589 16.369 63.3878 16.2472 62.5923 16.2472H61.1307V24.4801ZM78.1811 28.2088C76.9581 28.2088 75.9041 27.9751 75.0192 27.5078C74.1392 27.0355 73.4606 26.3594 72.9833 25.4794C72.511 24.5945 72.2748 23.5355 72.2748 22.3026C72.2748 21.1193 72.5135 20.0852 72.9908 19.2003C73.468 18.3153 74.1417 17.6268 75.0117 17.1346C75.8817 16.6424 76.9084 16.3963 78.0916 16.3963C78.9567 16.3963 79.7397 16.5305 80.4407 16.799C81.1417 17.0675 81.7408 17.4577 82.2379 17.9698C82.7351 18.4769 83.1179 19.0934 83.3864 19.8192C83.6548 20.5451 83.7891 21.3629 83.7891 22.2727V23.2273H73.5575V20.9602H80.0007C79.9957 20.6321 79.9112 20.3437 79.7471 20.0952C79.5881 19.8416 79.3718 19.6452 79.0984 19.506C78.8299 19.3619 78.5241 19.2898 78.1811 19.2898C77.848 19.2898 77.5422 19.3619 77.2638 19.506C76.9854 19.6452 76.7617 19.8391 76.5927 20.0877C76.4286 20.3363 76.3416 20.6271 76.3317 20.9602V23.4062C76.3317 23.7741 76.4087 24.1023 76.5628 24.3906C76.717 24.679 76.9382 24.9052 77.2266 25.0692C77.5149 25.2333 77.8629 25.3153 78.2706 25.3153C78.554 25.3153 78.8125 25.2756 79.0462 25.196C79.2848 25.1165 79.4886 25.0021 79.6577 24.853C79.8267 24.6989 79.951 24.5149 80.0305 24.3011H83.7891C83.6598 25.0966 83.354 25.7876 82.8718 26.3743C82.3895 26.956 81.7507 27.4084 80.9552 27.7315C80.1648 28.0497 79.24 28.2088 78.1811 28.2088ZM89.4148 25.2855L89.4446 20.3935H89.9815L92.7557 16.5455H97.3792L92.7258 22.5412H91.5625L89.4148 25.2855ZM85.7159 28V12.7273H89.8324V28H85.7159ZM92.7855 28L90.1605 23.4659L92.8451 20.5426L97.4986 28H92.7855ZM101.89 28.179C101.159 28.179 100.513 28.0597 99.9511 27.821C99.3943 27.5774 98.9568 27.2095 98.6386 26.7173C98.3205 26.2251 98.1614 25.5987 98.1614 24.8381C98.1614 24.2116 98.2683 23.6772 98.482 23.2347C98.6958 22.7873 98.9941 22.4219 99.3769 22.1385C99.7597 21.8551 100.205 21.6388 100.712 21.4897C101.224 21.3406 101.776 21.2436 102.367 21.1989C103.009 21.1491 103.523 21.0895 103.911 21.0199C104.304 20.9453 104.587 20.8434 104.761 20.7141C104.935 20.5799 105.022 20.4034 105.022 20.1847V20.1548C105.022 19.8565 104.908 19.6278 104.679 19.4688C104.45 19.3097 104.157 19.2301 103.799 19.2301C103.406 19.2301 103.086 19.3171 102.837 19.4911C102.594 19.6602 102.447 19.9212 102.397 20.2741H98.6088C98.6585 19.5781 98.8798 18.9368 99.2725 18.3501C99.6702 17.7585 100.249 17.2862 101.01 16.9332C101.771 16.5753 102.72 16.3963 103.859 16.3963C104.679 16.3963 105.415 16.4933 106.066 16.6871C106.717 16.8761 107.272 17.142 107.729 17.4851C108.187 17.8232 108.535 18.2209 108.773 18.6783C109.017 19.1307 109.139 19.6229 109.139 20.1548V28H105.291V26.3892H105.201C104.972 26.8168 104.694 27.1623 104.366 27.4258C104.043 27.6893 103.672 27.8807 103.255 28C102.842 28.1193 102.387 28.179 101.89 28.179ZM103.232 25.5838C103.546 25.5838 103.839 25.5192 104.112 25.3899C104.391 25.2607 104.617 25.0742 104.791 24.8306C104.965 24.587 105.052 24.2912 105.052 23.9432V22.9886C104.943 23.0334 104.826 23.0756 104.701 23.1154C104.582 23.1552 104.453 23.1925 104.314 23.2273C104.179 23.2621 104.035 23.2944 103.881 23.3242C103.732 23.354 103.575 23.3814 103.411 23.4062C103.093 23.456 102.832 23.538 102.628 23.6523C102.429 23.7617 102.28 23.8984 102.181 24.0625C102.086 24.2216 102.039 24.4006 102.039 24.5994C102.039 24.9176 102.151 25.1612 102.375 25.3303C102.599 25.4993 102.884 25.5838 103.232 25.5838ZM115.469 12.7273V28H111.353V12.7273H115.469ZM123.332 28.2088C122.089 28.2088 121.025 27.9627 120.14 27.4705C119.255 26.9734 118.577 26.2823 118.104 25.3974C117.632 24.5075 117.396 23.4759 117.396 22.3026C117.396 21.1293 117.632 20.1001 118.104 19.2152C118.577 18.3253 119.255 17.6342 120.14 17.142C121.025 16.6449 122.089 16.3963 123.332 16.3963C124.575 16.3963 125.639 16.6449 126.524 17.142C127.409 17.6342 128.087 18.3253 128.56 19.2152C129.032 20.1001 129.268 21.1293 129.268 22.3026C129.268 23.4759 129.032 24.5075 128.56 25.3974C128.087 26.2823 127.409 26.9734 126.524 27.4705C125.639 27.9627 124.575 28.2088 123.332 28.2088ZM123.362 25.1662C123.71 25.1662 124.011 25.0494 124.264 24.8157C124.518 24.582 124.714 24.2489 124.853 23.8164C124.992 23.3839 125.062 22.8693 125.062 22.2727C125.062 21.6712 124.992 21.1566 124.853 20.729C124.714 20.2965 124.518 19.9634 124.264 19.7298C124.011 19.4961 123.71 19.3793 123.362 19.3793C122.994 19.3793 122.678 19.4961 122.415 19.7298C122.151 19.9634 121.95 20.2965 121.811 20.729C121.671 21.1566 121.602 21.6712 121.602 22.2727C121.602 22.8693 121.671 23.3839 121.811 23.8164C121.95 24.2489 122.151 24.582 122.415 24.8157C122.678 25.0494 122.994 25.1662 123.362 25.1662ZM131.126 28V12.7273H137.718C138.852 12.7273 139.844 12.951 140.694 13.3984C141.544 13.8459 142.205 14.4748 142.677 15.2852C143.15 16.0955 143.386 17.0426 143.386 18.1264C143.386 19.2202 143.142 20.1673 142.655 20.9677C142.173 21.7681 141.494 22.3846 140.619 22.8171C139.749 23.2496 138.732 23.4659 137.569 23.4659H133.632V20.2443H136.734C137.221 20.2443 137.636 20.1598 137.979 19.9908C138.327 19.8168 138.593 19.5707 138.777 19.2525C138.966 18.9343 139.061 18.5589 139.061 18.1264C139.061 17.6889 138.966 17.3161 138.777 17.0078C138.593 16.6946 138.327 16.456 137.979 16.2919C137.636 16.1229 137.221 16.0384 136.734 16.0384H135.272V28H131.126ZM147.893 28.179C147.162 28.179 146.516 28.0597 145.954 27.821C145.397 27.5774 144.96 27.2095 144.642 26.7173C144.323 26.2251 144.164 25.5987 144.164 24.8381C144.164 24.2116 144.271 23.6772 144.485 23.2347C144.699 22.7873 144.997 22.4219 145.38 22.1385C145.763 21.8551 146.208 21.6388 146.715 21.4897C147.227 21.3406 147.779 21.2436 148.37 21.1989C149.012 21.1491 149.526 21.0895 149.914 21.0199C150.307 20.9453 150.59 20.8434 150.764 20.7141C150.938 20.5799 151.025 20.4034 151.025 20.1847V20.1548C151.025 19.8565 150.911 19.6278 150.682 19.4688C150.453 19.3097 150.16 19.2301 149.802 19.2301C149.409 19.2301 149.089 19.3171 148.84 19.4911C148.596 19.6602 148.45 19.9212 148.4 20.2741H144.612C144.661 19.5781 144.883 18.9368 145.275 18.3501C145.673 17.7585 146.252 17.2862 147.013 16.9332C147.774 16.5753 148.723 16.3963 149.862 16.3963C150.682 16.3963 151.418 16.4933 152.069 16.6871C152.72 16.8761 153.275 17.142 153.732 17.4851C154.189 17.8232 154.537 18.2209 154.776 18.6783C155.02 19.1307 155.142 19.6229 155.142 20.1548V28H151.294V26.3892H151.204C150.975 26.8168 150.697 27.1623 150.369 27.4258C150.046 27.6893 149.675 27.8807 149.258 28C148.845 28.1193 148.39 28.179 147.893 28.179ZM149.235 25.5838C149.548 25.5838 149.842 25.5192 150.115 25.3899C150.394 25.2607 150.62 25.0742 150.794 24.8306C150.968 24.587 151.055 24.2912 151.055 23.9432V22.9886C150.945 23.0334 150.829 23.0756 150.704 23.1154C150.585 23.1552 150.456 23.1925 150.317 23.2273C150.182 23.2621 150.038 23.2944 149.884 23.3242C149.735 23.354 149.578 23.3814 149.414 23.4062C149.096 23.456 148.835 23.538 148.631 23.6523C148.432 23.7617 148.283 23.8984 148.184 24.0625C148.089 24.2216 148.042 24.4006 148.042 24.5994C148.042 24.9176 148.154 25.1612 148.378 25.3303C148.601 25.4993 148.887 25.5838 149.235 25.5838ZM159.451 32.2955C158.979 32.2955 158.529 32.2582 158.101 32.1836C157.674 32.114 157.298 32.017 156.975 31.8928L157.87 28.9695C158.208 29.0888 158.516 29.1658 158.795 29.2006C159.078 29.2354 159.319 29.2156 159.518 29.141C159.722 29.0664 159.869 28.9247 159.958 28.7159L160.048 28.5071L156.021 16.5455H160.316L162.165 24.4801H162.285L164.164 16.5455H168.489L164.313 28.9545C164.104 29.5859 163.801 30.1527 163.403 30.6548C163.011 31.1619 162.494 31.5621 161.852 31.8555C161.211 32.1488 160.411 32.2955 159.451 32.2955Z" fill="black"/>
</svg>
