<svg width="26" height="26" viewBox="0 0 26 26" fill="none" xmlns="http://www.w3.org/2000/svg">
<g clip-path="url(#clip0_605_7136)">
<path fill-rule="evenodd" clip-rule="evenodd" d="M11.2258 10.232C11.3267 10.1478 11.4432 10.0844 11.5686 10.0453C11.6941 10.0061 11.826 9.99212 11.9568 10.004C12.0877 10.0159 12.2149 10.0535 12.3312 10.1145C12.4476 10.1756 12.5507 10.259 12.6348 10.36L14.7178 12.86C14.8056 12.9604 14.8724 13.0773 14.9144 13.2038C14.9563 13.3304 14.9726 13.4641 14.9621 13.597C14.9516 13.7299 14.9146 13.8594 14.8534 13.9779C14.7921 14.0963 14.7078 14.2013 14.6054 14.2867C14.5029 14.372 14.3844 14.436 14.2569 14.4749C14.1294 14.5138 13.9953 14.5268 13.8627 14.5132C13.7301 14.4995 13.6015 14.4594 13.4846 14.3954C13.3676 14.3313 13.2647 14.2444 13.1818 14.14L11.0978 11.64C10.9281 11.4363 10.8463 11.1735 10.8703 10.9095C10.8943 10.6455 11.0222 10.4018 11.2258 10.232Z" fill="black"/>
<path fill-rule="evenodd" clip-rule="evenodd" d="M11.2258 16.768C11.0222 16.5982 10.8943 16.3545 10.8703 16.0905C10.8463 15.8265 10.9281 15.5637 11.0978 15.36L13.1818 12.86C13.2647 12.7555 13.3676 12.6687 13.4846 12.6046C13.6015 12.5406 13.7301 12.5005 13.8627 12.4868C13.9953 12.4732 14.1294 12.4862 14.2569 12.5251C14.3844 12.564 14.5029 12.628 14.6054 12.7133C14.7078 12.7987 14.7921 12.9037 14.8534 13.0221C14.9146 13.1406 14.9516 13.2701 14.9621 13.403C14.9726 13.5359 14.9563 13.6696 14.9144 13.7962C14.8724 13.9227 14.8056 14.0396 14.7178 14.14L12.6348 16.64C12.5507 16.741 12.4476 16.8244 12.3312 16.8855C12.2149 16.9465 12.0877 16.9841 11.9568 16.996C11.826 17.0079 11.6941 16.9939 11.5686 16.9547C11.4432 16.9156 11.3267 16.8522 11.2258 16.768Z" fill="black"/>
<path fill-rule="evenodd" clip-rule="evenodd" d="M13.7002 13.5C13.7002 13.7652 13.5948 14.0196 13.4073 14.2071C13.2198 14.3946 12.9654 14.5 12.7002 14.5H6.2002C5.93498 14.5 5.68063 14.3946 5.49309 14.2071C5.30555 14.0196 5.2002 13.7652 5.2002 13.5C5.2002 13.2348 5.30555 12.9804 5.49309 12.7929C5.68063 12.6054 5.93498 12.5 6.2002 12.5H12.7002C12.9654 12.5 13.2198 12.6054 13.4073 12.7929C13.5948 12.9804 13.7002 13.2348 13.7002 13.5ZM19.2502 20.5C19.2502 20.7652 19.1448 21.0196 18.9573 21.2071C18.7698 21.3946 18.5154 21.5 18.2502 21.5H9.2502C8.98498 21.5 8.73063 21.3946 8.54309 21.2071C8.35555 21.0196 8.2502 20.7652 8.2502 20.5C8.2502 20.2348 8.35555 19.9804 8.54309 19.7929C8.73063 19.6054 8.98498 19.5 9.2502 19.5H18.2502C18.5154 19.5 18.7698 19.6054 18.9573 19.7929C19.1448 19.9804 19.2502 20.2348 19.2502 20.5ZM19.2502 6.5C19.2502 6.76522 19.1448 7.01957 18.9573 7.20711C18.7698 7.39464 18.5154 7.5 18.2502 7.5H9.2502C8.98498 7.5 8.73063 7.39464 8.54309 7.20711C8.35555 7.01957 8.2502 6.76522 8.2502 6.5C8.2502 6.23478 8.35555 5.98043 8.54309 5.79289C8.73063 5.60536 8.98498 5.5 9.2502 5.5H18.2502C18.5154 5.5 18.7698 5.60536 18.9573 5.79289C19.1448 5.98043 19.2502 6.23478 19.2502 6.5Z" fill="black"/>
<path fill-rule="evenodd" clip-rule="evenodd" d="M9.25 21.5C8.98478 21.5 8.73043 21.3946 8.54289 21.2071C8.35536 21.0196 8.25 20.7652 8.25 20.5V16.5C8.25 16.2348 8.35536 15.9804 8.54289 15.7929C8.73043 15.6054 8.98478 15.5 9.25 15.5C9.51522 15.5 9.76957 15.6054 9.95711 15.7929C10.1446 15.9804 10.25 16.2348 10.25 16.5V20.5C10.25 20.7652 10.1446 21.0196 9.95711 21.2071C9.76957 21.3946 9.51522 21.5 9.25 21.5ZM9.25 11.5C8.98478 11.5 8.73043 11.3946 8.54289 11.2071C8.35536 11.0196 8.25 10.7652 8.25 10.5V6.5C8.25 6.23478 8.35536 5.98043 8.54289 5.79289C8.73043 5.60536 8.98478 5.5 9.25 5.5C9.51522 5.5 9.76957 5.60536 9.95711 5.79289C10.1446 5.98043 10.25 6.23478 10.25 6.5V10.5C10.25 10.7652 10.1446 11.0196 9.95711 11.2071C9.76957 11.3946 9.51522 11.5 9.25 11.5ZM18.6 21.5C18.3348 21.5 18.0804 21.3946 17.8929 21.2071C17.7054 21.0196 17.6 20.7652 17.6 20.5V6.5C17.6 6.23478 17.7054 5.98043 17.8929 5.79289C18.0804 5.60536 18.3348 5.5 18.6 5.5C18.8652 5.5 19.1196 5.60536 19.3071 5.79289C19.4946 5.98043 19.6 6.23478 19.6 6.5V20.5C19.6 20.7652 19.4946 21.0196 19.3071 21.2071C19.1196 21.3946 18.8652 21.5 18.6 21.5Z" fill="black"/>
<path fill-rule="evenodd" clip-rule="evenodd" d="M13 24C19.075 24 24 19.075 24 13C24 6.925 19.075 2 13 2C6.925 2 2 6.925 2 13C2 19.075 6.925 24 13 24ZM13 26C20.18 26 26 20.18 26 13C26 5.82 20.18 0 13 0C5.82 0 0 5.82 0 13C0 20.18 5.82 26 13 26Z" fill="black"/>
</g>
<defs>
<clipPath id="clip0_605_7136">
<rect width="26" height="26" fill="white"/>
</clipPath>
</defs>
</svg>
