<svg width="500" height="222" viewBox="0 0 500 222" fill="none" xmlns="http://www.w3.org/2000/svg">
<g clip-path="url(#clip0_0_1120)">
<g clip-path="url(#clip1_0_1120)">
<mask id="mask0_0_1120" style="mask-type:luminance" maskUnits="userSpaceOnUse" x="0" y="0" width="500" height="222">
<rect width="500" height="222" fill="white"/>
</mask>
<g mask="url(#mask0_0_1120)">
<path d="M-551 187.79L-535.969 217.19L-520.051 194.324L-502.372 210.294L-489.113 216.463L-474.079 191.057L-459.048 202.309L-442.249 232.071L-427.219 217.19L-412.188 272.538L-401.995 288L-395.175 189.921L-391.432 103.959L-379.185 87.5725L-368.936 127.54C-368.936 127.54 -352.95 134.799 -352.95 134.799L-337.92 127.177L-321.124 143.509C-321.124 143.509 -306.971 166.739 -306.971 166.013C-306.971 165.287 -290.175 154.036 -290.175 154.036L-275.148 172.545L-260.118 171.819L-245.968 150.043L-230.053 160.932L-211.489 165.649L-199.108 150.769L-183.193 165.287L-166.398 150.042L-153.135 142.783H-108.002L-92.122 97.4147L-75.3266 120.281L-47.0303 105.037L-32.0032 89.7926L-16.0885 134.436L-2.82275 156.939H15.8212L29.8908 149.68L45.7986 105.398L61.7168 89.0667L74.9825 61.4821L90.0131 45.8751L104.156 60.3933L139.519 69.1028L149.248 81.4447L166.931 89.4297L182.842 76.7248L195.224 90.1556L209.12 42.0859L217.661 54.8802L222.105 117.846L232.716 108.12L242.968 129.077L260.651 109.661L273.026 56.5785L289.824 31.3555L303.971 27L320.773 60.3933L334.92 96.7312L349.947 153.209L367.633 147.861L384.429 128.17L395.042 94.1905L412.725 75.2744L425.1 53.4957L443.667 75.636L458.701 52.7712L473.735 40.7937L487.878 54.223L501.14 68.3783L517.942 31.3569L532.969 75.2744L548 178.997" stroke="#0052FF" stroke-width="2"/>
<path fill-rule="evenodd" clip-rule="evenodd" d="M-549 229.794L-535.699 217.19L-519.785 194.324L-502.11 210.294L-488.855 216.463L-473.824 191.057L-458.797 202.309L-442.003 232.071L-426.976 217.19L-411.949 272.538L-401.759 288L-394.94 189.921L-391.198 103.959L-378.954 87.5725L-368.708 127.54L-352.726 134.799L-337.699 127.177L-320.908 143.509C-320.908 143.509 -306.758 166.739 -306.758 166.013C-306.758 165.287 -289.967 154.036 -289.967 154.036L-274.943 172.545L-259.916 171.819L-245.77 150.043L-229.859 160.932L-211.3 165.649L-198.922 150.769L-183.011 165.287L-166.22 150.042L-152.961 142.783H-107.839L-91.9626 97.4147L-75.1714 120.281L-46.8821 105.037L-31.8588 89.7926L-15.948 134.436L-2.68555 156.939H15.9538L30.0199 149.68L45.9237 105.398L61.838 89.0667L75.1003 61.4821L90.1272 45.8751L104.267 60.3933L139.62 69.1028L149.347 81.4447L167.026 89.4297L182.933 76.7248L195.312 90.1556L209.204 42.0859L217.744 54.8802L222.186 117.846L232.794 108.12L243.044 129.077L260.722 109.661L273.094 56.5785L289.889 31.3555L304.032 27L320.83 60.3933L334.973 96.7312L349.996 153.209L367.678 147.861L384.469 128.17L395.08 94.1905L412.759 75.2744L425.13 53.4957L443.693 75.636L458.723 52.7712L473.753 40.7937L487.893 54.223L501.152 68.3783L517.95 31.3569L532.973 75.2744L548 178.997V229.053L-549 229.794Z" fill="url(#paint0_linear_0_1120)"/>
</g>
</g>
<g clip-path="url(#clip2_0_1120)">
<ellipse cx="274.06" cy="57" rx="9.0596" ry="9" fill="#0052FF"/>
<ellipse cx="274.06" cy="57" rx="9.0596" ry="9" fill="white" fill-opacity="0.8"/>
<ellipse cx="274.06" cy="57" rx="5.03311" ry="5" fill="#0052FF"/>
<g filter="url(#filter0_d_0_1120)">
<path fill-rule="evenodd" clip-rule="evenodd" d="M294.179 34C293.074 34 292.179 34.8954 292.179 36V50.1005L285.948 56.2906C285.554 56.6816 285.554 57.3184 285.948 57.7094L292.179 63.8995V92C292.179 93.1046 293.074 94 294.179 94H413.179C414.283 94 415.179 93.1046 415.179 92V36C415.179 34.8954 414.283 34 413.179 34H294.179Z" fill="white"/>
</g>
<path d="M313.587 46.679C314.004 46.6823 314.422 46.7618 314.84 46.9176C315.257 47.0734 315.638 47.3319 315.983 47.6932C316.328 48.0511 316.605 48.54 316.813 49.1598C317.022 49.7796 317.127 50.5568 317.127 51.4915C317.127 52.3963 317.04 53.2 316.868 53.9027C316.699 54.602 316.454 55.192 316.132 55.6726C315.814 56.1532 315.426 56.5178 314.969 56.7663C314.515 57.0149 314.001 57.1392 313.428 57.1392C312.858 57.1392 312.349 57.0265 311.901 56.8011C311.457 56.5724 311.093 56.2559 310.808 55.8516C310.526 55.4439 310.345 54.9716 310.266 54.4347H311.479C311.588 54.902 311.805 55.2881 312.13 55.593C312.458 55.8946 312.891 56.0455 313.428 56.0455C314.213 56.0455 314.833 55.7024 315.287 55.0163C315.745 54.3303 315.973 53.3608 315.973 52.108H315.894C315.708 52.3864 315.488 52.6267 315.232 52.8288C314.977 53.031 314.694 53.1868 314.382 53.2962C314.071 53.4055 313.739 53.4602 313.388 53.4602C312.805 53.4602 312.269 53.3161 311.782 53.0277C311.298 52.736 310.91 52.3366 310.619 51.8295C310.33 51.3191 310.186 50.7358 310.186 50.0795C310.186 49.4564 310.325 48.8864 310.604 48.3693C310.886 47.849 311.28 47.4347 311.787 47.1264C312.298 46.8182 312.897 46.669 313.587 46.679ZM313.587 47.7727C313.169 47.7727 312.793 47.8771 312.458 48.0859C312.127 48.2914 311.863 48.5698 311.668 48.9212C311.476 49.2692 311.379 49.6553 311.379 50.0795C311.379 50.5038 311.472 50.8899 311.658 51.2379C311.847 51.5826 312.104 51.8577 312.428 52.0632C312.757 52.2654 313.129 52.3665 313.547 52.3665C313.862 52.3665 314.155 52.3052 314.427 52.1825C314.699 52.0566 314.936 51.8859 315.138 51.6705C315.343 51.4517 315.504 51.2048 315.62 50.9297C315.736 50.6513 315.794 50.3613 315.794 50.0597C315.794 49.6619 315.698 49.2891 315.506 48.9411C315.317 48.593 315.055 48.3113 314.72 48.0959C314.389 47.8804 314.011 47.7727 313.587 47.7727ZM319.957 55.6974C319.711 55.6974 319.501 55.6096 319.325 55.4339C319.15 55.2583 319.062 55.0478 319.062 54.8026C319.062 54.5573 319.15 54.3468 319.325 54.1712C319.501 53.9955 319.711 53.9077 319.957 53.9077C320.202 53.9077 320.412 53.9955 320.588 54.1712C320.764 54.3468 320.852 54.5573 320.852 54.8026C320.852 54.965 320.81 55.1141 320.727 55.25C320.648 55.3859 320.54 55.4953 320.404 55.5781C320.272 55.6577 320.122 55.6974 319.957 55.6974ZM319.957 50.5469C319.711 50.5469 319.501 50.459 319.325 50.2834C319.15 50.1077 319.062 49.8973 319.062 49.652C319.062 49.4067 319.15 49.1963 319.325 49.0206C319.501 48.8449 319.711 48.7571 319.957 48.7571C320.202 48.7571 320.412 48.8449 320.588 49.0206C320.764 49.1963 320.852 49.4067 320.852 49.652C320.852 49.8144 320.81 49.9635 320.727 50.0994C320.648 50.2353 320.54 50.3447 320.404 50.4276C320.272 50.5071 320.122 50.5469 319.957 50.5469ZM326.517 46.8182V57H325.284V48.1108H325.224L322.738 49.7614V48.5085L325.284 46.8182H326.517ZM329.206 54.9119V53.8977L333.681 46.8182H334.417V48.3892H333.919L330.539 53.7386V53.8182H336.564V54.9119H329.206ZM333.999 57V54.6037V54.1314V46.8182H335.172V57H333.999ZM339.302 55.6974C339.057 55.6974 338.847 55.6096 338.671 55.4339C338.495 55.2583 338.408 55.0478 338.408 54.8026C338.408 54.5573 338.495 54.3468 338.671 54.1712C338.847 53.9955 339.057 53.9077 339.302 53.9077C339.548 53.9077 339.758 53.9955 339.934 54.1712C340.109 54.3468 340.197 54.5573 340.197 54.8026C340.197 54.965 340.156 55.1141 340.073 55.25C339.993 55.3859 339.886 55.4953 339.75 55.5781C339.617 55.6577 339.468 55.6974 339.302 55.6974ZM339.302 50.5469C339.057 50.5469 338.847 50.459 338.671 50.2834C338.495 50.1077 338.408 49.8973 338.408 49.652C338.408 49.4067 338.495 49.1963 338.671 49.0206C338.847 48.8449 339.057 48.7571 339.302 48.7571C339.548 48.7571 339.758 48.8449 339.934 49.0206C340.109 49.1963 340.197 49.4067 340.197 49.652C340.197 49.8144 340.156 49.9635 340.073 50.0994C339.993 50.2353 339.886 50.3447 339.75 50.4276C339.617 50.5071 339.468 50.5469 339.302 50.5469ZM342.044 54.9119V53.8977L346.519 46.8182H347.254V48.3892H346.757L343.377 53.7386V53.8182H349.402V54.9119H342.044ZM346.837 57V54.6037V54.1314V46.8182H348.01V57H346.837ZM354.586 57.1392C353.837 57.1392 353.199 56.9354 352.672 56.5277C352.145 56.1167 351.743 55.5218 351.464 54.7429C351.186 53.9607 351.047 53.0161 351.047 51.9091C351.047 50.8087 351.186 49.8691 351.464 49.0902C351.746 48.308 352.15 47.7114 352.677 47.3004C353.208 46.8861 353.844 46.679 354.586 46.679C355.329 46.679 355.963 46.8861 356.49 47.3004C357.021 47.7114 357.425 48.308 357.703 49.0902C357.985 49.8691 358.126 50.8087 358.126 51.9091C358.126 53.0161 357.987 53.9607 357.708 54.7429C357.43 55.5218 357.027 56.1167 356.5 56.5277C355.973 56.9354 355.335 57.1392 354.586 57.1392ZM354.586 56.0455C355.329 56.0455 355.905 55.6875 356.316 54.9716C356.727 54.2557 356.933 53.2348 356.933 51.9091C356.933 51.0275 356.838 50.2768 356.65 49.657C356.464 49.0372 356.195 48.5649 355.844 48.2401C355.496 47.9152 355.077 47.7528 354.586 47.7528C353.851 47.7528 353.275 48.1158 352.861 48.8416C352.447 49.5642 352.24 50.5866 352.24 51.9091C352.24 52.7907 352.333 53.5398 352.518 54.1562C352.704 54.7727 352.971 55.2417 353.319 55.5632C353.67 55.8847 354.092 56.0455 354.586 56.0455ZM364.549 57H363.257L366.995 46.8182H368.268L372.007 57H370.714L367.672 48.429H367.592L364.549 57ZM365.027 53.0227H370.237V54.1165H365.027V53.0227ZM373.593 46.8182H375.064L378.525 55.2699H378.644L382.104 46.8182H383.576V57H382.422V49.2642H382.323L379.141 57H378.027L374.846 49.2642H374.746V57H373.593V46.8182Z" fill="#747A80"/>
<path d="M313.587 46.679C314.004 46.6823 314.422 46.7618 314.84 46.9176C315.257 47.0734 315.638 47.3319 315.983 47.6932C316.328 48.0511 316.605 48.54 316.813 49.1598C317.022 49.7796 317.127 50.5568 317.127 51.4915C317.127 52.3963 317.04 53.2 316.868 53.9027C316.699 54.602 316.454 55.192 316.132 55.6726C315.814 56.1532 315.426 56.5178 314.969 56.7663C314.515 57.0149 314.001 57.1392 313.428 57.1392C312.858 57.1392 312.349 57.0265 311.901 56.8011C311.457 56.5724 311.093 56.2559 310.808 55.8516C310.526 55.4439 310.345 54.9716 310.266 54.4347H311.479C311.588 54.902 311.805 55.2881 312.13 55.593C312.458 55.8946 312.891 56.0455 313.428 56.0455C314.213 56.0455 314.833 55.7024 315.287 55.0163C315.745 54.3303 315.973 53.3608 315.973 52.108H315.894C315.708 52.3864 315.488 52.6267 315.232 52.8288C314.977 53.031 314.694 53.1868 314.382 53.2962C314.071 53.4055 313.739 53.4602 313.388 53.4602C312.805 53.4602 312.269 53.3161 311.782 53.0277C311.298 52.736 310.91 52.3366 310.619 51.8295C310.33 51.3191 310.186 50.7358 310.186 50.0795C310.186 49.4564 310.325 48.8864 310.604 48.3693C310.886 47.849 311.28 47.4347 311.787 47.1264C312.298 46.8182 312.897 46.669 313.587 46.679ZM313.587 47.7727C313.169 47.7727 312.793 47.8771 312.458 48.0859C312.127 48.2914 311.863 48.5698 311.668 48.9212C311.476 49.2692 311.379 49.6553 311.379 50.0795C311.379 50.5038 311.472 50.8899 311.658 51.2379C311.847 51.5826 312.104 51.8577 312.428 52.0632C312.757 52.2654 313.129 52.3665 313.547 52.3665C313.862 52.3665 314.155 52.3052 314.427 52.1825C314.699 52.0566 314.936 51.8859 315.138 51.6705C315.343 51.4517 315.504 51.2048 315.62 50.9297C315.736 50.6513 315.794 50.3613 315.794 50.0597C315.794 49.6619 315.698 49.2891 315.506 48.9411C315.317 48.593 315.055 48.3113 314.72 48.0959C314.389 47.8804 314.011 47.7727 313.587 47.7727ZM319.957 55.6974C319.711 55.6974 319.501 55.6096 319.325 55.4339C319.15 55.2583 319.062 55.0478 319.062 54.8026C319.062 54.5573 319.15 54.3468 319.325 54.1712C319.501 53.9955 319.711 53.9077 319.957 53.9077C320.202 53.9077 320.412 53.9955 320.588 54.1712C320.764 54.3468 320.852 54.5573 320.852 54.8026C320.852 54.965 320.81 55.1141 320.727 55.25C320.648 55.3859 320.54 55.4953 320.404 55.5781C320.272 55.6577 320.122 55.6974 319.957 55.6974ZM319.957 50.5469C319.711 50.5469 319.501 50.459 319.325 50.2834C319.15 50.1077 319.062 49.8973 319.062 49.652C319.062 49.4067 319.15 49.1963 319.325 49.0206C319.501 48.8449 319.711 48.7571 319.957 48.7571C320.202 48.7571 320.412 48.8449 320.588 49.0206C320.764 49.1963 320.852 49.4067 320.852 49.652C320.852 49.8144 320.81 49.9635 320.727 50.0994C320.648 50.2353 320.54 50.3447 320.404 50.4276C320.272 50.5071 320.122 50.5469 319.957 50.5469ZM326.517 46.8182V57H325.284V48.1108H325.224L322.738 49.7614V48.5085L325.284 46.8182H326.517ZM329.206 54.9119V53.8977L333.681 46.8182H334.417V48.3892H333.919L330.539 53.7386V53.8182H336.564V54.9119H329.206ZM333.999 57V54.6037V54.1314V46.8182H335.172V57H333.999ZM339.302 55.6974C339.057 55.6974 338.847 55.6096 338.671 55.4339C338.495 55.2583 338.408 55.0478 338.408 54.8026C338.408 54.5573 338.495 54.3468 338.671 54.1712C338.847 53.9955 339.057 53.9077 339.302 53.9077C339.548 53.9077 339.758 53.9955 339.934 54.1712C340.109 54.3468 340.197 54.5573 340.197 54.8026C340.197 54.965 340.156 55.1141 340.073 55.25C339.993 55.3859 339.886 55.4953 339.75 55.5781C339.617 55.6577 339.468 55.6974 339.302 55.6974ZM339.302 50.5469C339.057 50.5469 338.847 50.459 338.671 50.2834C338.495 50.1077 338.408 49.8973 338.408 49.652C338.408 49.4067 338.495 49.1963 338.671 49.0206C338.847 48.8449 339.057 48.7571 339.302 48.7571C339.548 48.7571 339.758 48.8449 339.934 49.0206C340.109 49.1963 340.197 49.4067 340.197 49.652C340.197 49.8144 340.156 49.9635 340.073 50.0994C339.993 50.2353 339.886 50.3447 339.75 50.4276C339.617 50.5071 339.468 50.5469 339.302 50.5469ZM342.044 54.9119V53.8977L346.519 46.8182H347.254V48.3892H346.757L343.377 53.7386V53.8182H349.402V54.9119H342.044ZM346.837 57V54.6037V54.1314V46.8182H348.01V57H346.837ZM354.586 57.1392C353.837 57.1392 353.199 56.9354 352.672 56.5277C352.145 56.1167 351.743 55.5218 351.464 54.7429C351.186 53.9607 351.047 53.0161 351.047 51.9091C351.047 50.8087 351.186 49.8691 351.464 49.0902C351.746 48.308 352.15 47.7114 352.677 47.3004C353.208 46.8861 353.844 46.679 354.586 46.679C355.329 46.679 355.963 46.8861 356.49 47.3004C357.021 47.7114 357.425 48.308 357.703 49.0902C357.985 49.8691 358.126 50.8087 358.126 51.9091C358.126 53.0161 357.987 53.9607 357.708 54.7429C357.43 55.5218 357.027 56.1167 356.5 56.5277C355.973 56.9354 355.335 57.1392 354.586 57.1392ZM354.586 56.0455C355.329 56.0455 355.905 55.6875 356.316 54.9716C356.727 54.2557 356.933 53.2348 356.933 51.9091C356.933 51.0275 356.838 50.2768 356.65 49.657C356.464 49.0372 356.195 48.5649 355.844 48.2401C355.496 47.9152 355.077 47.7528 354.586 47.7528C353.851 47.7528 353.275 48.1158 352.861 48.8416C352.447 49.5642 352.24 50.5866 352.24 51.9091C352.24 52.7907 352.333 53.5398 352.518 54.1562C352.704 54.7727 352.971 55.2417 353.319 55.5632C353.67 55.8847 354.092 56.0455 354.586 56.0455ZM364.549 57H363.257L366.995 46.8182H368.268L372.007 57H370.714L367.672 48.429H367.592L364.549 57ZM365.027 53.0227H370.237V54.1165H365.027V53.0227ZM373.593 46.8182H375.064L378.525 55.2699H378.644L382.104 46.8182H383.576V57H382.422V49.2642H382.323L379.141 57H378.027L374.846 49.2642H374.746V57H373.593V46.8182Z" fill="black" fill-opacity="0.2"/>
<path d="M314.144 82.4545V67.9091H315.075V82.4545H314.144ZM316.615 72.7102C316.57 72.2519 316.375 71.8958 316.03 71.642C315.685 71.3883 315.218 71.2614 314.627 71.2614C314.225 71.2614 313.886 71.3182 313.61 71.4318C313.333 71.5417 313.121 71.6951 312.973 71.892C312.829 72.089 312.757 72.3125 312.757 72.5625C312.75 72.7708 312.793 72.9527 312.888 73.108C312.986 73.2633 313.121 73.3977 313.291 73.5114C313.462 73.6212 313.659 73.7178 313.882 73.8011C314.106 73.8807 314.344 73.9489 314.598 74.0057L315.644 74.2557C316.151 74.3693 316.617 74.5208 317.041 74.7102C317.466 74.8996 317.833 75.1326 318.144 75.4091C318.454 75.6856 318.695 76.0114 318.865 76.3864C319.039 76.7614 319.129 77.1913 319.132 77.6761C319.129 78.3883 318.947 79.0057 318.587 79.5284C318.231 80.0473 317.716 80.4508 317.041 80.7386C316.371 81.0227 315.562 81.1648 314.615 81.1648C313.676 81.1648 312.858 81.0208 312.161 80.733C311.468 80.4451 310.926 80.0189 310.536 79.4545C310.149 78.8864 309.947 78.1837 309.928 77.3466H312.308C312.335 77.7367 312.447 78.0625 312.644 78.3239C312.844 78.5814 313.111 78.7765 313.445 78.9091C313.782 79.0379 314.163 79.1023 314.587 79.1023C315.004 79.1023 315.365 79.0417 315.672 78.9205C315.983 78.7992 316.223 78.6307 316.394 78.4148C316.564 78.1989 316.649 77.9508 316.649 77.6705C316.649 77.4091 316.572 77.1894 316.416 77.0114C316.265 76.8333 316.041 76.6818 315.746 76.5568C315.454 76.4318 315.096 76.3182 314.672 76.2159L313.405 75.8977C312.424 75.6591 311.649 75.286 311.081 74.7784C310.513 74.2708 310.231 73.5871 310.235 72.7273C310.231 72.0227 310.418 71.4072 310.797 70.8807C311.18 70.3542 311.704 69.9432 312.371 69.6477C313.038 69.3523 313.795 69.2045 314.644 69.2045C315.507 69.2045 316.261 69.3523 316.905 69.6477C317.553 69.9432 318.057 70.3542 318.416 70.8807C318.776 71.4072 318.962 72.017 318.973 72.7102H316.615ZM325.06 81.1591C324.185 81.1591 323.406 81.017 322.725 80.733C322.047 80.4451 321.514 80.053 321.128 79.5568C320.742 79.0606 320.548 78.4981 320.548 77.8693C320.548 77.3845 320.658 76.9394 320.878 76.5341C321.102 76.125 321.405 75.786 321.787 75.517C322.17 75.2443 322.598 75.0701 323.071 74.9943V74.9148C322.45 74.7898 321.946 74.4886 321.56 74.0114C321.173 73.5303 320.98 72.9716 320.98 72.3352C320.98 71.733 321.156 71.197 321.509 70.7273C321.861 70.2538 322.344 69.8826 322.958 69.6136C323.575 69.3409 324.276 69.2045 325.06 69.2045C325.844 69.2045 326.543 69.3409 327.156 69.6136C327.774 69.8864 328.259 70.2595 328.611 70.733C328.963 71.2027 329.141 71.7367 329.145 72.3352C329.141 72.9754 328.944 73.5341 328.554 74.0114C328.164 74.4886 327.664 74.7898 327.054 74.9148V74.9943C327.52 75.0701 327.942 75.2443 328.321 75.517C328.704 75.786 329.007 76.125 329.23 76.5341C329.458 76.9394 329.573 77.3845 329.577 77.8693C329.573 78.4981 329.378 79.0606 328.992 79.5568C328.605 80.053 328.071 80.4451 327.389 80.733C326.711 81.017 325.935 81.1591 325.06 81.1591ZM325.06 79.3523C325.45 79.3523 325.791 79.2822 326.083 79.142C326.374 78.9981 326.602 78.8011 326.764 78.5511C326.931 78.2973 327.014 78.0057 327.014 77.6761C327.014 77.339 326.929 77.0417 326.759 76.7841C326.588 76.5227 326.357 76.3182 326.066 76.1705C325.774 76.0189 325.439 75.9432 325.06 75.9432C324.685 75.9432 324.35 76.0189 324.054 76.1705C323.759 76.3182 323.526 76.5227 323.355 76.7841C323.189 77.0417 323.105 77.339 323.105 77.6761C323.105 78.0057 323.187 78.2973 323.35 78.5511C323.512 78.8011 323.742 78.9981 324.037 79.142C324.333 79.2822 324.673 79.3523 325.06 79.3523ZM325.06 74.1534C325.386 74.1534 325.675 74.0871 325.929 73.9545C326.183 73.822 326.382 73.6383 326.526 73.4034C326.67 73.1686 326.742 72.8977 326.742 72.5909C326.742 72.2879 326.67 72.0227 326.526 71.7955C326.382 71.5644 326.185 71.3845 325.935 71.2557C325.685 71.1231 325.393 71.0568 325.06 71.0568C324.73 71.0568 324.439 71.1231 324.185 71.2557C323.931 71.3845 323.732 71.5644 323.588 71.7955C323.448 72.0227 323.378 72.2879 323.378 72.5909C323.378 72.8977 323.45 73.1686 323.594 73.4034C323.738 73.6383 323.937 73.822 324.191 73.9545C324.444 74.0871 324.734 74.1534 325.06 74.1534ZM335.86 81.2557C334.882 81.2519 334.041 81.0114 333.337 80.5341C332.636 80.0568 332.096 79.3655 331.718 78.4602C331.343 77.5549 331.157 76.4659 331.161 75.1932C331.161 73.9242 331.348 72.8428 331.723 71.9489C332.102 71.0549 332.642 70.375 333.343 69.9091C334.047 69.4394 334.886 69.2045 335.86 69.2045C336.833 69.2045 337.67 69.4394 338.371 69.9091C339.075 70.3788 339.617 71.0606 339.996 71.9545C340.375 72.8447 340.562 73.9242 340.558 75.1932C340.558 76.4697 340.369 77.5606 339.99 78.4659C339.615 79.3712 339.077 80.0625 338.377 80.5398C337.676 81.017 336.837 81.2557 335.86 81.2557ZM335.86 79.2159C336.526 79.2159 337.058 78.8807 337.456 78.2102C337.854 77.5398 338.051 76.5341 338.047 75.1932C338.047 74.3106 337.956 73.5758 337.774 72.9886C337.596 72.4015 337.343 71.9602 337.013 71.6648C336.687 71.3693 336.303 71.2216 335.86 71.2216C335.197 71.2216 334.666 71.553 334.269 72.2159C333.871 72.8788 333.67 73.8712 333.666 75.1932C333.666 76.0871 333.755 76.8333 333.933 77.4318C334.115 78.0265 334.371 78.4735 334.7 78.7727C335.03 79.0682 335.416 79.2159 335.86 79.2159ZM344.497 79.4091L344.435 80.0341C344.386 80.5341 344.291 81.0322 344.151 81.5284C344.014 82.0284 343.87 82.4811 343.719 82.8864C343.571 83.2917 343.452 83.6098 343.361 83.8409H341.793C341.85 83.6174 341.927 83.3049 342.026 82.9034C342.124 82.5057 342.217 82.0587 342.304 81.5625C342.391 81.0663 342.446 80.5606 342.469 80.0455L342.497 79.4091H344.497ZM346.512 78.9545V77.017L351.37 69.3636H353.04V72.0455H352.051L348.989 76.892V76.983H355.892V78.9545H346.512ZM352.097 81V78.3636L352.142 77.5057V69.3636H354.449V81H352.097ZM357.531 81V79.2273L361.673 75.392C362.026 75.0511 362.321 74.7443 362.56 74.4716C362.802 74.1989 362.986 73.9318 363.111 73.6705C363.236 73.4053 363.298 73.1193 363.298 72.8125C363.298 72.4716 363.221 72.178 363.066 71.9318C362.91 71.6818 362.698 71.4905 362.429 71.358C362.16 71.2216 361.855 71.1534 361.514 71.1534C361.158 71.1534 360.848 71.2254 360.583 71.3693C360.317 71.5133 360.113 71.7197 359.969 71.9886C359.825 72.2576 359.753 72.5777 359.753 72.9489H357.418C357.418 72.1875 357.59 71.5265 357.935 70.9659C358.28 70.4053 358.762 69.9716 359.384 69.6648C360.005 69.358 360.721 69.2045 361.531 69.2045C362.365 69.2045 363.09 69.3523 363.708 69.6477C364.329 69.9394 364.812 70.3447 365.156 70.8636C365.501 71.3826 365.673 71.9773 365.673 72.6477C365.673 73.0871 365.586 73.5208 365.412 73.9489C365.242 74.3769 364.937 74.8523 364.497 75.375C364.058 75.8939 363.439 76.517 362.639 77.2443L360.941 78.9091V78.9886H365.827V81H357.531ZM372.172 81.2557C371.195 81.2519 370.354 81.0114 369.649 80.5341C368.949 80.0568 368.409 79.3655 368.03 78.4602C367.655 77.5549 367.469 76.4659 367.473 75.1932C367.473 73.9242 367.661 72.8428 368.036 71.9489C368.414 71.0549 368.954 70.375 369.655 69.9091C370.36 69.4394 371.199 69.2045 372.172 69.2045C373.146 69.2045 373.983 69.4394 374.683 69.9091C375.388 70.3788 375.93 71.0606 376.308 71.9545C376.687 72.8447 376.875 73.9242 376.871 75.1932C376.871 76.4697 376.682 77.5606 376.303 78.4659C375.928 79.3712 375.39 80.0625 374.689 80.5398C373.988 81.017 373.149 81.2557 372.172 81.2557ZM372.172 79.2159C372.839 79.2159 373.371 78.8807 373.769 78.2102C374.166 77.5398 374.363 76.5341 374.36 75.1932C374.36 74.3106 374.269 73.5758 374.087 72.9886C373.909 72.4015 373.655 71.9602 373.325 71.6648C373 71.3693 372.615 71.2216 372.172 71.2216C371.509 71.2216 370.979 71.553 370.581 72.2159C370.183 72.8788 369.983 73.8712 369.979 75.1932C369.979 76.0871 370.068 76.8333 370.246 77.4318C370.428 78.0265 370.683 78.4735 371.013 78.7727C371.343 79.0682 371.729 79.2159 372.172 79.2159ZM379.594 81.1477C379.219 81.1477 378.897 81.0152 378.628 80.75C378.363 80.4811 378.23 80.1591 378.23 79.7841C378.23 79.4129 378.363 79.0947 378.628 78.8295C378.897 78.5644 379.219 78.4318 379.594 78.4318C379.958 78.4318 380.276 78.5644 380.548 78.8295C380.821 79.0947 380.958 79.4129 380.958 79.7841C380.958 80.0341 380.893 80.2633 380.764 80.4716C380.639 80.6761 380.475 80.8409 380.27 80.9659C380.066 81.0871 379.84 81.1477 379.594 81.1477ZM387.078 81.1591C386.275 81.1591 385.559 81.0114 384.931 80.7159C384.306 80.4205 383.809 80.0133 383.442 79.4943C383.075 78.9754 382.883 78.3807 382.868 77.7102H385.254C385.281 78.161 385.47 78.5265 385.823 78.8068C386.175 79.0871 386.593 79.2273 387.078 79.2273C387.465 79.2273 387.806 79.142 388.101 78.9716C388.4 78.7973 388.633 78.5568 388.8 78.25C388.97 77.9394 389.056 77.5833 389.056 77.1818C389.056 76.7727 388.968 76.4129 388.794 76.1023C388.624 75.7917 388.387 75.5492 388.084 75.375C387.781 75.2008 387.434 75.1117 387.044 75.108C386.703 75.108 386.372 75.178 386.05 75.3182C385.732 75.4583 385.484 75.6496 385.306 75.892L383.118 75.5L383.669 69.3636H390.783V71.375H385.698L385.396 74.2898H385.465C385.669 74.0019 385.978 73.7633 386.391 73.5739C386.804 73.3845 387.266 73.2898 387.777 73.2898C388.478 73.2898 389.103 73.4545 389.652 73.7841C390.201 74.1136 390.635 74.5663 390.953 75.142C391.271 75.714 391.429 76.3731 391.425 77.1193C391.429 77.9034 391.247 78.6004 390.879 79.2102C390.516 79.8163 390.006 80.2936 389.351 80.642C388.7 80.9867 387.942 81.1591 387.078 81.1591ZM397.703 81.2557C396.726 81.2519 395.885 81.0114 395.181 80.5341C394.48 80.0568 393.94 79.3655 393.561 78.4602C393.186 77.5549 393.001 76.4659 393.004 75.1932C393.004 73.9242 393.192 72.8428 393.567 71.9489C393.946 71.0549 394.486 70.375 395.186 69.9091C395.891 69.4394 396.73 69.2045 397.703 69.2045C398.677 69.2045 399.514 69.4394 400.215 69.9091C400.919 70.3788 401.461 71.0606 401.84 71.9545C402.218 72.8447 402.406 73.9242 402.402 75.1932C402.402 76.4697 402.213 77.5606 401.834 78.4659C401.459 79.3712 400.921 80.0625 400.22 80.5398C399.52 81.017 398.681 81.2557 397.703 81.2557ZM397.703 79.2159C398.37 79.2159 398.902 78.8807 399.3 78.2102C399.698 77.5398 399.895 76.5341 399.891 75.1932C399.891 74.3106 399.8 73.5758 399.618 72.9886C399.44 72.4015 399.186 71.9602 398.857 71.6648C398.531 71.3693 398.146 71.2216 397.703 71.2216C397.04 71.2216 396.51 71.553 396.112 72.2159C395.715 72.8788 395.514 73.8712 395.51 75.1932C395.51 76.0871 395.599 76.8333 395.777 77.4318C395.959 78.0265 396.215 78.4735 396.544 78.7727C396.874 79.0682 397.26 79.2159 397.703 79.2159Z" fill="black"/>
</g>
</g>
<defs>
<filter id="filter0_d_0_1120" x="261.652" y="30" width="177.526" height="108" filterUnits="userSpaceOnUse" color-interpolation-filters="sRGB">
<feFlood flood-opacity="0" result="BackgroundImageFix"/>
<feColorMatrix in="SourceAlpha" type="matrix" values="0 0 0 0 0 0 0 0 0 0 0 0 0 0 0 0 0 0 127 0" result="hardAlpha"/>
<feOffset dy="20"/>
<feGaussianBlur stdDeviation="12"/>
<feColorMatrix type="matrix" values="0 0 0 0 0.6 0 0 0 0 0.607843 0 0 0 0 0.658824 0 0 0 0.18 0"/>
<feBlend mode="normal" in2="BackgroundImageFix" result="effect1_dropShadow_0_1120"/>
<feBlend mode="normal" in="SourceGraphic" in2="effect1_dropShadow_0_1120" result="shape"/>
</filter>
<linearGradient id="paint0_linear_0_1120" x1="-832.219" y1="-187.033" x2="-832.219" y2="208.735" gradientUnits="userSpaceOnUse">
<stop stop-color="#0052FF"/>
<stop offset="1" stop-color="white" stop-opacity="0.01"/>
</linearGradient>
<clipPath id="clip0_0_1120">
<rect width="500" height="222" fill="white"/>
</clipPath>
<clipPath id="clip1_0_1120">
<rect width="500" height="222" fill="white"/>
</clipPath>
<clipPath id="clip2_0_1120">
<rect width="150.179" height="60" fill="white" transform="translate(265 34)"/>
</clipPath>
</defs>
</svg>
