<svg width="500" height="267" viewBox="0 0 500 267" fill="none" xmlns="http://www.w3.org/2000/svg">
<g clip-path="url(#clip0_0_1470)">
<g clip-path="url(#clip1_0_1470)">
<mask id="mask0_0_1470" style="mask-type:luminance" maskUnits="userSpaceOnUse" x="0" y="0" width="500" height="261">
<rect width="500" height="261" fill="white"/>
</mask>
<g mask="url(#mask0_0_1470)">
<path fill-rule="evenodd" clip-rule="evenodd" d="M-331 310.813L-317.699 257.19L-301.785 234.324L-284.11 250.294L-270.855 256.463L-255.824 231.057L-240.797 242.309L-224.003 272.071L-208.976 257.19L-193.949 312.538L-183.759 328L-176.94 229.921L-173.198 143.959L-160.954 127.572L-150.708 167.54L-134.726 174.799L-119.699 167.177L-102.908 183.509C-102.908 183.509 -88.7578 206.739 -88.7578 206.013C-88.7578 205.287 -71.9666 194.036 -71.9666 194.036L-56.9432 212.545L-41.9164 211.819L-27.7701 190.043L-11.8593 200.932L6.6998 205.649L19.0783 190.769L34.989 205.287L51.7803 190.042L65.0392 182.783H110.161L126.037 137.415L142.829 160.281L171.118 145.037L186.141 129.793L202.052 174.436L215.314 196.939H233.954L248.02 189.68L263.924 145.398L279.838 129.067L293.1 101.482L308.127 85.8751L322.267 100.393L357.62 109.103L367.347 121.445L385.026 129.43L400.933 116.725L413.312 130.156L427.204 82.0859L435.744 94.8802L440.186 157.846L450.794 148.12L461.044 169.077L478.722 149.661L491.094 96.5785L507.889 71.3555L522.032 67L538.83 100.393L552.973 136.731L567.996 193.209L585.678 187.861L602.469 168.17L613.08 134.191L630.759 115.274L643.13 93.4957L661.693 115.636L676.723 92.7712L691.753 80.7937L705.893 94.223L719.152 108.378L735.95 71.3569L750.973 115.274L766 218.997V310.071L-331 310.813Z" fill="url(#paint0_linear_0_1470)"/>
<path d="M-333 227.79L-317.969 257.19L-302.051 234.324L-284.372 250.294L-271.113 256.463L-256.079 231.057L-241.048 242.309L-224.249 272.071L-209.219 257.19L-194.188 312.538L-183.995 328L-177.175 229.921L-173.432 143.959L-161.185 127.572L-150.936 167.54C-150.936 167.54 -134.95 174.799 -134.95 174.799L-119.92 167.177L-103.124 183.509C-103.124 183.509 -88.9708 206.739 -88.9708 206.013C-88.9708 205.287 -72.1754 194.036 -72.1754 194.036L-57.1483 212.545L-42.1177 211.819L-27.9678 190.043L-12.0531 200.932L6.51062 205.649L18.8922 190.769L34.8069 205.287L51.6023 190.042L64.8646 182.783H109.998L125.878 137.415L142.673 160.281L170.97 145.037L185.997 129.793L201.911 174.436L215.177 196.939H233.821L247.891 189.68L263.799 145.398L279.717 129.067L292.983 101.482L308.013 85.8751L322.156 100.393L357.519 109.103L367.248 121.445L384.931 129.43L400.842 116.725L413.224 130.156L427.12 82.0859L435.661 94.8802L440.105 157.846L450.716 148.12L460.968 169.077L478.651 149.661L491.026 96.5785L507.824 71.3555L521.971 67L538.773 100.393L552.92 136.731L567.947 193.209L585.633 187.861L602.429 168.17L613.042 134.191L630.725 115.274L643.1 93.4957L661.667 115.636L676.701 92.7712L691.735 80.7937L705.878 94.223L719.14 108.378L735.942 71.3569L750.969 115.274L766 218.997" stroke="#23E33E" stroke-width="2"/>
</g>
</g>
<g clip-path="url(#clip2_0_1470)">
<mask id="mask1_0_1470" style="mask-type:luminance" maskUnits="userSpaceOnUse" x="0" y="0" width="500" height="267">
<rect width="500" height="267" fill="white"/>
</mask>
<g mask="url(#mask1_0_1470)">
<path d="M-551 187.79L-535.969 217.19L-520.051 194.324L-502.372 210.294L-489.113 216.463L-474.079 191.057L-459.048 202.309L-442.249 232.071L-427.219 217.19L-412.188 272.538L-401.995 288L-395.175 189.921L-391.432 103.959L-379.185 87.5725L-368.936 127.54C-368.936 127.54 -352.95 134.799 -352.95 134.799L-337.92 127.177L-321.124 143.509C-321.124 143.509 -306.971 166.739 -306.971 166.013C-306.971 165.287 -290.175 154.036 -290.175 154.036L-275.148 172.545L-260.118 171.819L-245.968 150.043L-230.053 160.932L-211.489 165.649L-199.108 150.769L-183.193 165.287L-166.398 150.042L-153.135 142.783H-108.002L-92.122 97.4147L-75.3266 120.281L-47.0303 105.037L-32.0032 89.7926L-16.0885 134.436L-2.82275 156.939H15.8212L29.8908 149.68L45.7986 105.398L61.7168 89.0667L74.9825 61.4821L90.0131 45.8751L104.156 60.3933L139.519 69.1028L149.248 81.4447L166.931 89.4297L182.842 76.7248L195.224 90.1556L209.12 42.0859L217.661 54.8802L222.105 117.846L232.716 108.12L242.968 129.077L260.651 109.661L273.026 56.5785L289.824 31.3555L303.971 27L320.773 60.3933L334.92 96.7312L349.947 153.209L367.633 147.861L384.429 128.17L395.042 94.1905L412.725 75.2744L425.1 53.4957L443.667 75.636L458.701 52.7712L473.735 40.7937L487.878 54.223L501.14 68.3783L517.942 31.3569L532.969 75.2744L548 178.997" stroke="#0052FF" stroke-width="2"/>
<path fill-rule="evenodd" clip-rule="evenodd" d="M-549 267L-535.699 217.19L-519.785 194.324L-502.11 210.294L-488.855 216.463L-473.824 191.057L-458.797 202.309L-442.003 232.071L-426.976 217.19L-411.949 272.538L-401.759 288L-394.94 189.921L-391.198 103.959L-378.954 87.5725L-368.708 127.54L-352.726 134.799L-337.699 127.177L-320.908 143.509C-320.908 143.509 -306.758 166.739 -306.758 166.013C-306.758 165.287 -289.967 154.036 -289.967 154.036L-274.943 172.545L-259.916 171.819L-245.77 150.043L-229.859 160.932L-211.3 165.649L-198.922 150.769L-183.011 165.287L-166.22 150.042L-152.961 142.783H-107.839L-91.9626 97.4147L-75.1714 120.281L-46.8821 105.037L-31.8588 89.7926L-15.948 134.436L-2.68555 156.939H15.9538L30.0199 149.68L45.9237 105.398L61.838 89.0667L75.1003 61.4821L90.1272 45.8751L104.267 60.3933L139.62 69.1028L149.347 81.4447L167.026 89.4297L182.933 76.7248L195.312 90.1556L209.204 42.0859L217.744 54.8802L222.186 117.846L232.794 108.12L243.044 129.077L260.722 109.661L273.094 56.5785L289.889 31.3555L304.032 27L320.83 60.3933L334.973 96.7312L349.996 153.209L367.678 147.861L384.469 128.17L395.08 94.1905L412.759 75.2744L425.13 53.4957L443.693 75.636L458.723 52.7712L473.753 40.7937L487.893 54.223L501.152 68.3783L517.95 31.3569L532.973 75.2744L548 178.997V266.259L-549 267Z" fill="url(#paint1_linear_0_1470)"/>
</g>
</g>
<g clip-path="url(#clip3_0_1470)">
<ellipse cx="274.06" cy="57" rx="9.0596" ry="9" fill="#0052FF"/>
<ellipse cx="274.06" cy="57" rx="9.0596" ry="9" fill="white" fill-opacity="0.8"/>
<ellipse cx="274.059" cy="57" rx="5.03311" ry="5" fill="#0052FF"/>
<g filter="url(#filter0_d_0_1470)">
<path fill-rule="evenodd" clip-rule="evenodd" d="M294.179 34C293.074 34 292.179 34.8954 292.179 36V50.1005L285.948 56.2906C285.554 56.6816 285.554 57.3184 285.948 57.7094L292.179 63.8995V92C292.179 93.1046 293.074 94 294.179 94H413.179C414.283 94 415.179 93.1046 415.179 92V36C415.179 34.8954 414.283 34 413.179 34H294.179Z" fill="white"/>
</g>
<path d="M313.586 46.679C314.004 46.6823 314.422 46.7618 314.839 46.9176C315.257 47.0734 315.638 47.3319 315.983 47.6932C316.327 48.0511 316.604 48.54 316.813 49.1598C317.022 49.7796 317.126 50.5568 317.126 51.4915C317.126 52.3963 317.04 53.2 316.868 53.9027C316.699 54.602 316.453 55.192 316.132 55.6726C315.814 56.1532 315.426 56.5178 314.969 56.7663C314.515 57.0149 314.001 57.1392 313.427 57.1392C312.857 57.1392 312.349 57.0265 311.901 56.8011C311.457 56.5724 311.092 56.2559 310.807 55.8516C310.526 55.4439 310.345 54.9716 310.265 54.4347H311.479C311.588 54.902 311.805 55.2881 312.13 55.593C312.458 55.8946 312.89 56.0455 313.427 56.0455C314.213 56.0455 314.833 55.7024 315.287 55.0163C315.744 54.3303 315.973 53.3608 315.973 52.108H315.893C315.708 52.3864 315.487 52.6267 315.232 52.8288C314.977 53.031 314.693 53.1868 314.382 53.2962C314.07 53.4055 313.739 53.4602 313.388 53.4602C312.804 53.4602 312.269 53.3161 311.782 53.0277C311.298 52.736 310.91 52.3366 310.618 51.8295C310.33 51.3191 310.186 50.7358 310.186 50.0795C310.186 49.4564 310.325 48.8864 310.604 48.3693C310.885 47.849 311.28 47.4347 311.787 47.1264C312.297 46.8182 312.897 46.669 313.586 46.679ZM313.586 47.7727C313.169 47.7727 312.793 47.8771 312.458 48.0859C312.126 48.2914 311.863 48.5698 311.667 48.9212C311.475 49.2692 311.379 49.6553 311.379 50.0795C311.379 50.5038 311.472 50.8899 311.657 51.2379C311.846 51.5826 312.103 51.8577 312.428 52.0632C312.756 52.2654 313.129 52.3665 313.547 52.3665C313.862 52.3665 314.155 52.3052 314.427 52.1825C314.698 52.0566 314.935 51.8859 315.138 51.6705C315.343 51.4517 315.504 51.2048 315.62 50.9297C315.736 50.6513 315.794 50.3613 315.794 50.0597C315.794 49.6619 315.698 49.2891 315.506 48.9411C315.317 48.593 315.055 48.3113 314.72 48.0959C314.389 47.8804 314.011 47.7727 313.586 47.7727ZM319.956 55.6974C319.711 55.6974 319.501 55.6096 319.325 55.4339C319.149 55.2583 319.061 55.0478 319.061 54.8026C319.061 54.5573 319.149 54.3468 319.325 54.1712C319.501 53.9955 319.711 53.9077 319.956 53.9077C320.202 53.9077 320.412 53.9955 320.588 54.1712C320.763 54.3468 320.851 54.5573 320.851 54.8026C320.851 54.965 320.81 55.1141 320.727 55.25C320.647 55.3859 320.54 55.4953 320.404 55.5781C320.271 55.6577 320.122 55.6974 319.956 55.6974ZM319.956 50.5469C319.711 50.5469 319.501 50.459 319.325 50.2834C319.149 50.1077 319.061 49.8973 319.061 49.652C319.061 49.4067 319.149 49.1963 319.325 49.0206C319.501 48.8449 319.711 48.7571 319.956 48.7571C320.202 48.7571 320.412 48.8449 320.588 49.0206C320.763 49.1963 320.851 49.4067 320.851 49.652C320.851 49.8144 320.81 49.9635 320.727 50.0994C320.647 50.2353 320.54 50.3447 320.404 50.4276C320.271 50.5071 320.122 50.5469 319.956 50.5469ZM326.516 46.8182V57H325.283V48.1108H325.224L322.738 49.7614V48.5085L325.283 46.8182H326.516ZM329.206 54.9119V53.8977L333.68 46.8182H334.416V48.3892H333.919L330.538 53.7386V53.8182H336.564V54.9119H329.206ZM333.999 57V54.6037V54.1314V46.8182H335.172V57H333.999ZM339.302 55.6974C339.057 55.6974 338.846 55.6096 338.671 55.4339C338.495 55.2583 338.407 55.0478 338.407 54.8026C338.407 54.5573 338.495 54.3468 338.671 54.1712C338.846 53.9955 339.057 53.9077 339.302 53.9077C339.547 53.9077 339.758 53.9955 339.933 54.1712C340.109 54.3468 340.197 54.5573 340.197 54.8026C340.197 54.965 340.155 55.1141 340.073 55.25C339.993 55.3859 339.885 55.4953 339.749 55.5781C339.617 55.6577 339.468 55.6974 339.302 55.6974ZM339.302 50.5469C339.057 50.5469 338.846 50.459 338.671 50.2834C338.495 50.1077 338.407 49.8973 338.407 49.652C338.407 49.4067 338.495 49.1963 338.671 49.0206C338.846 48.8449 339.057 48.7571 339.302 48.7571C339.547 48.7571 339.758 48.8449 339.933 49.0206C340.109 49.1963 340.197 49.4067 340.197 49.652C340.197 49.8144 340.155 49.9635 340.073 50.0994C339.993 50.2353 339.885 50.3447 339.749 50.4276C339.617 50.5071 339.468 50.5469 339.302 50.5469ZM342.044 54.9119V53.8977L346.518 46.8182H347.254V48.3892H346.757L343.376 53.7386V53.8182H349.402V54.9119H342.044ZM346.836 57V54.6037V54.1314V46.8182H348.01V57H346.836ZM354.586 57.1392C353.837 57.1392 353.199 56.9354 352.672 56.5277C352.145 56.1167 351.742 55.5218 351.464 54.7429C351.185 53.9607 351.046 53.0161 351.046 51.9091C351.046 50.8087 351.185 49.8691 351.464 49.0902C351.746 48.308 352.15 47.7114 352.677 47.3004C353.207 46.8861 353.844 46.679 354.586 46.679C355.328 46.679 355.963 46.8861 356.49 47.3004C357.02 47.7114 357.425 48.308 357.703 49.0902C357.985 49.8691 358.126 50.8087 358.126 51.9091C358.126 53.0161 357.987 53.9607 357.708 54.7429C357.43 55.5218 357.027 56.1167 356.5 56.5277C355.973 56.9354 355.335 57.1392 354.586 57.1392ZM354.586 56.0455C355.328 56.0455 355.905 55.6875 356.316 54.9716C356.727 54.2557 356.933 53.2348 356.933 51.9091C356.933 51.0275 356.838 50.2768 356.649 49.657C356.464 49.0372 356.195 48.5649 355.844 48.2401C355.496 47.9152 355.076 47.7528 354.586 47.7528C353.85 47.7528 353.275 48.1158 352.861 48.8416C352.446 49.5642 352.239 50.5866 352.239 51.9091C352.239 52.7907 352.332 53.5398 352.518 54.1562C352.703 54.7727 352.97 55.2417 353.318 55.5632C353.67 55.8847 354.092 56.0455 354.586 56.0455ZM364.549 57H363.256L366.995 46.8182H368.268L372.006 57H370.714L367.671 48.429H367.592L364.549 57ZM365.026 53.0227H370.237V54.1165H365.026V53.0227ZM373.592 46.8182H375.064L378.524 55.2699H378.643L382.104 46.8182H383.575V57H382.422V49.2642H382.322L379.141 57H378.027L374.845 49.2642H374.746V57H373.592V46.8182Z" fill="#747A80"/>
<path d="M313.586 46.679C314.004 46.6823 314.422 46.7618 314.839 46.9176C315.257 47.0734 315.638 47.3319 315.983 47.6932C316.327 48.0511 316.604 48.54 316.813 49.1598C317.022 49.7796 317.126 50.5568 317.126 51.4915C317.126 52.3963 317.04 53.2 316.868 53.9027C316.699 54.602 316.453 55.192 316.132 55.6726C315.814 56.1532 315.426 56.5178 314.969 56.7663C314.515 57.0149 314.001 57.1392 313.427 57.1392C312.857 57.1392 312.349 57.0265 311.901 56.8011C311.457 56.5724 311.092 56.2559 310.807 55.8516C310.526 55.4439 310.345 54.9716 310.265 54.4347H311.479C311.588 54.902 311.805 55.2881 312.13 55.593C312.458 55.8946 312.89 56.0455 313.427 56.0455C314.213 56.0455 314.833 55.7024 315.287 55.0163C315.744 54.3303 315.973 53.3608 315.973 52.108H315.893C315.708 52.3864 315.487 52.6267 315.232 52.8288C314.977 53.031 314.693 53.1868 314.382 53.2962C314.07 53.4055 313.739 53.4602 313.388 53.4602C312.804 53.4602 312.269 53.3161 311.782 53.0277C311.298 52.736 310.91 52.3366 310.618 51.8295C310.33 51.3191 310.186 50.7358 310.186 50.0795C310.186 49.4564 310.325 48.8864 310.604 48.3693C310.885 47.849 311.28 47.4347 311.787 47.1264C312.297 46.8182 312.897 46.669 313.586 46.679ZM313.586 47.7727C313.169 47.7727 312.793 47.8771 312.458 48.0859C312.126 48.2914 311.863 48.5698 311.667 48.9212C311.475 49.2692 311.379 49.6553 311.379 50.0795C311.379 50.5038 311.472 50.8899 311.657 51.2379C311.846 51.5826 312.103 51.8577 312.428 52.0632C312.756 52.2654 313.129 52.3665 313.547 52.3665C313.862 52.3665 314.155 52.3052 314.427 52.1825C314.698 52.0566 314.935 51.8859 315.138 51.6705C315.343 51.4517 315.504 51.2048 315.62 50.9297C315.736 50.6513 315.794 50.3613 315.794 50.0597C315.794 49.6619 315.698 49.2891 315.506 48.9411C315.317 48.593 315.055 48.3113 314.72 48.0959C314.389 47.8804 314.011 47.7727 313.586 47.7727ZM319.956 55.6974C319.711 55.6974 319.501 55.6096 319.325 55.4339C319.149 55.2583 319.061 55.0478 319.061 54.8026C319.061 54.5573 319.149 54.3468 319.325 54.1712C319.501 53.9955 319.711 53.9077 319.956 53.9077C320.202 53.9077 320.412 53.9955 320.588 54.1712C320.763 54.3468 320.851 54.5573 320.851 54.8026C320.851 54.965 320.81 55.1141 320.727 55.25C320.647 55.3859 320.54 55.4953 320.404 55.5781C320.271 55.6577 320.122 55.6974 319.956 55.6974ZM319.956 50.5469C319.711 50.5469 319.501 50.459 319.325 50.2834C319.149 50.1077 319.061 49.8973 319.061 49.652C319.061 49.4067 319.149 49.1963 319.325 49.0206C319.501 48.8449 319.711 48.7571 319.956 48.7571C320.202 48.7571 320.412 48.8449 320.588 49.0206C320.763 49.1963 320.851 49.4067 320.851 49.652C320.851 49.8144 320.81 49.9635 320.727 50.0994C320.647 50.2353 320.54 50.3447 320.404 50.4276C320.271 50.5071 320.122 50.5469 319.956 50.5469ZM326.516 46.8182V57H325.283V48.1108H325.224L322.738 49.7614V48.5085L325.283 46.8182H326.516ZM329.206 54.9119V53.8977L333.68 46.8182H334.416V48.3892H333.919L330.538 53.7386V53.8182H336.564V54.9119H329.206ZM333.999 57V54.6037V54.1314V46.8182H335.172V57H333.999ZM339.302 55.6974C339.057 55.6974 338.846 55.6096 338.671 55.4339C338.495 55.2583 338.407 55.0478 338.407 54.8026C338.407 54.5573 338.495 54.3468 338.671 54.1712C338.846 53.9955 339.057 53.9077 339.302 53.9077C339.547 53.9077 339.758 53.9955 339.933 54.1712C340.109 54.3468 340.197 54.5573 340.197 54.8026C340.197 54.965 340.155 55.1141 340.073 55.25C339.993 55.3859 339.885 55.4953 339.749 55.5781C339.617 55.6577 339.468 55.6974 339.302 55.6974ZM339.302 50.5469C339.057 50.5469 338.846 50.459 338.671 50.2834C338.495 50.1077 338.407 49.8973 338.407 49.652C338.407 49.4067 338.495 49.1963 338.671 49.0206C338.846 48.8449 339.057 48.7571 339.302 48.7571C339.547 48.7571 339.758 48.8449 339.933 49.0206C340.109 49.1963 340.197 49.4067 340.197 49.652C340.197 49.8144 340.155 49.9635 340.073 50.0994C339.993 50.2353 339.885 50.3447 339.749 50.4276C339.617 50.5071 339.468 50.5469 339.302 50.5469ZM342.044 54.9119V53.8977L346.518 46.8182H347.254V48.3892H346.757L343.376 53.7386V53.8182H349.402V54.9119H342.044ZM346.836 57V54.6037V54.1314V46.8182H348.01V57H346.836ZM354.586 57.1392C353.837 57.1392 353.199 56.9354 352.672 56.5277C352.145 56.1167 351.742 55.5218 351.464 54.7429C351.185 53.9607 351.046 53.0161 351.046 51.9091C351.046 50.8087 351.185 49.8691 351.464 49.0902C351.746 48.308 352.15 47.7114 352.677 47.3004C353.207 46.8861 353.844 46.679 354.586 46.679C355.328 46.679 355.963 46.8861 356.49 47.3004C357.02 47.7114 357.425 48.308 357.703 49.0902C357.985 49.8691 358.126 50.8087 358.126 51.9091C358.126 53.0161 357.987 53.9607 357.708 54.7429C357.43 55.5218 357.027 56.1167 356.5 56.5277C355.973 56.9354 355.335 57.1392 354.586 57.1392ZM354.586 56.0455C355.328 56.0455 355.905 55.6875 356.316 54.9716C356.727 54.2557 356.933 53.2348 356.933 51.9091C356.933 51.0275 356.838 50.2768 356.649 49.657C356.464 49.0372 356.195 48.5649 355.844 48.2401C355.496 47.9152 355.076 47.7528 354.586 47.7528C353.85 47.7528 353.275 48.1158 352.861 48.8416C352.446 49.5642 352.239 50.5866 352.239 51.9091C352.239 52.7907 352.332 53.5398 352.518 54.1562C352.703 54.7727 352.97 55.2417 353.318 55.5632C353.67 55.8847 354.092 56.0455 354.586 56.0455ZM364.549 57H363.256L366.995 46.8182H368.268L372.006 57H370.714L367.671 48.429H367.592L364.549 57ZM365.026 53.0227H370.237V54.1165H365.026V53.0227ZM373.592 46.8182H375.064L378.524 55.2699H378.643L382.104 46.8182H383.575V57H382.422V49.2642H382.322L379.141 57H378.027L374.845 49.2642H374.746V57H373.592V46.8182Z" fill="black" fill-opacity="0.2"/>
<path d="M314.143 82.4545V67.9091H315.075V82.4545H314.143ZM316.615 72.7102C316.569 72.2519 316.374 71.8958 316.03 71.642C315.685 71.3883 315.217 71.2614 314.626 71.2614C314.225 71.2614 313.886 71.3182 313.609 71.4318C313.333 71.5417 313.121 71.6951 312.973 71.892C312.829 72.089 312.757 72.3125 312.757 72.5625C312.749 72.7708 312.793 72.9527 312.888 73.108C312.986 73.2633 313.121 73.3977 313.291 73.5114C313.461 73.6212 313.658 73.7178 313.882 73.8011C314.105 73.8807 314.344 73.9489 314.598 74.0057L315.643 74.2557C316.151 74.3693 316.617 74.5208 317.041 74.7102C317.465 74.8996 317.833 75.1326 318.143 75.4091C318.454 75.6856 318.694 76.0114 318.865 76.3864C319.039 76.7614 319.128 77.1913 319.132 77.6761C319.128 78.3883 318.946 79.0057 318.586 79.5284C318.23 80.0473 317.715 80.4508 317.041 80.7386C316.371 81.0227 315.562 81.1648 314.615 81.1648C313.675 81.1648 312.857 81.0208 312.16 80.733C311.467 80.4451 310.925 80.0189 310.535 79.4545C310.149 78.8864 309.946 78.1837 309.927 77.3466H312.308C312.335 77.7367 312.446 78.0625 312.643 78.3239C312.844 78.5814 313.111 78.7765 313.444 78.9091C313.782 79.0379 314.162 79.1023 314.586 79.1023C315.003 79.1023 315.365 79.0417 315.672 78.9205C315.982 78.7992 316.223 78.6307 316.393 78.4148C316.564 78.1989 316.649 77.9508 316.649 77.6705C316.649 77.4091 316.571 77.1894 316.416 77.0114C316.265 76.8333 316.041 76.6818 315.746 76.5568C315.454 76.4318 315.096 76.3182 314.672 76.2159L313.405 75.8977C312.424 75.6591 311.649 75.286 311.081 74.7784C310.513 74.2708 310.23 73.5871 310.234 72.7273C310.23 72.0227 310.418 71.4072 310.797 70.8807C311.179 70.3542 311.704 69.9432 312.371 69.6477C313.037 69.3523 313.795 69.2045 314.643 69.2045C315.507 69.2045 316.261 69.3523 316.905 69.6477C317.552 69.9432 318.056 70.3542 318.416 70.8807C318.776 71.4072 318.961 72.017 318.973 72.7102H316.615ZM325.059 81.1591C324.184 81.1591 323.406 81.017 322.724 80.733C322.046 80.4451 321.514 80.053 321.128 79.5568C320.741 79.0606 320.548 78.4981 320.548 77.8693C320.548 77.3845 320.658 76.9394 320.878 76.5341C321.101 76.125 321.404 75.786 321.787 75.517C322.169 75.2443 322.597 75.0701 323.071 74.9943V74.9148C322.45 74.7898 321.946 74.4886 321.559 74.0114C321.173 73.5303 320.98 72.9716 320.98 72.3352C320.98 71.733 321.156 71.197 321.508 70.7273C321.861 70.2538 322.344 69.8826 322.957 69.6136C323.575 69.3409 324.275 69.2045 325.059 69.2045C325.844 69.2045 326.542 69.3409 327.156 69.6136C327.773 69.8864 328.258 70.2595 328.611 70.733C328.963 71.2027 329.141 71.7367 329.145 72.3352C329.141 72.9754 328.944 73.5341 328.554 74.0114C328.164 74.4886 327.664 74.7898 327.054 74.9148V74.9943C327.52 75.0701 327.942 75.2443 328.321 75.517C328.703 75.786 329.006 76.125 329.23 76.5341C329.457 76.9394 329.573 77.3845 329.577 77.8693C329.573 78.4981 329.378 79.0606 328.991 79.5568C328.605 80.053 328.071 80.4451 327.389 80.733C326.711 81.017 325.934 81.1591 325.059 81.1591ZM325.059 79.3523C325.45 79.3523 325.791 79.2822 326.082 79.142C326.374 78.9981 326.601 78.8011 326.764 78.5511C326.931 78.2973 327.014 78.0057 327.014 77.6761C327.014 77.339 326.929 77.0417 326.758 76.7841C326.588 76.5227 326.357 76.3182 326.065 76.1705C325.773 76.0189 325.438 75.9432 325.059 75.9432C324.684 75.9432 324.349 76.0189 324.054 76.1705C323.758 76.3182 323.525 76.5227 323.355 76.7841C323.188 77.0417 323.105 77.339 323.105 77.6761C323.105 78.0057 323.186 78.2973 323.349 78.5511C323.512 78.8011 323.741 78.9981 324.037 79.142C324.332 79.2822 324.673 79.3523 325.059 79.3523ZM325.059 74.1534C325.385 74.1534 325.675 74.0871 325.929 73.9545C326.183 73.822 326.381 73.6383 326.525 73.4034C326.669 73.1686 326.741 72.8977 326.741 72.5909C326.741 72.2879 326.669 72.0227 326.525 71.7955C326.381 71.5644 326.184 71.3845 325.934 71.2557C325.684 71.1231 325.393 71.0568 325.059 71.0568C324.73 71.0568 324.438 71.1231 324.184 71.2557C323.931 71.3845 323.732 71.5644 323.588 71.7955C323.448 72.0227 323.378 72.2879 323.378 72.5909C323.378 72.8977 323.45 73.1686 323.594 73.4034C323.738 73.6383 323.936 73.822 324.19 73.9545C324.444 74.0871 324.734 74.1534 325.059 74.1534ZM333.622 79.4091L333.559 80.0341C333.51 80.5341 333.416 81.0322 333.275 81.5284C333.139 82.0284 332.995 82.4811 332.844 82.8864C332.696 83.2917 332.577 83.6098 332.486 83.8409H330.917C330.974 83.6174 331.052 83.3049 331.15 82.9034C331.249 82.5057 331.342 82.0587 331.429 81.5625C331.516 81.0663 331.571 80.5606 331.594 80.0455L331.622 79.4091H333.622ZM335.636 78.9545V77.017L340.494 69.3636H342.165V72.0455H341.176L338.113 76.892V76.983H345.017V78.9545H335.636ZM341.221 81V78.3636L341.267 77.5057V69.3636H343.574V81H341.221ZM346.656 81V79.2273L350.798 75.392C351.15 75.0511 351.446 74.7443 351.684 74.4716C351.927 74.1989 352.111 73.9318 352.236 73.6705C352.361 73.4053 352.423 73.1193 352.423 72.8125C352.423 72.4716 352.345 72.178 352.19 71.9318C352.035 71.6818 351.823 71.4905 351.554 71.358C351.285 71.2216 350.98 71.1534 350.639 71.1534C350.283 71.1534 349.972 71.2254 349.707 71.3693C349.442 71.5133 349.238 71.7197 349.094 71.9886C348.95 72.2576 348.878 72.5777 348.878 72.9489H346.542C346.542 72.1875 346.715 71.5265 347.059 70.9659C347.404 70.4053 347.887 69.9716 348.508 69.6648C349.13 69.358 349.845 69.2045 350.656 69.2045C351.489 69.2045 352.215 69.3523 352.832 69.6477C353.453 69.9394 353.936 70.3447 354.281 70.8636C354.626 71.3826 354.798 71.9773 354.798 72.6477C354.798 73.0871 354.711 73.5208 354.537 73.9489C354.366 74.3769 354.061 74.8523 353.622 75.375C353.183 75.8939 352.563 76.517 351.764 77.2443L350.065 78.9091V78.9886H354.952V81H346.656ZM361.297 81.2557C360.319 81.2519 359.479 81.0114 358.774 80.5341C358.073 80.0568 357.533 79.3655 357.155 78.4602C356.78 77.5549 356.594 76.4659 356.598 75.1932C356.598 73.9242 356.785 72.8428 357.16 71.9489C357.539 71.0549 358.079 70.375 358.78 69.9091C359.484 69.4394 360.323 69.2045 361.297 69.2045C362.27 69.2045 363.107 69.4394 363.808 69.9091C364.513 70.3788 365.054 71.0606 365.433 71.9545C365.812 72.8447 365.999 73.9242 365.996 75.1932C365.996 76.4697 365.806 77.5606 365.427 78.4659C365.052 79.3712 364.515 80.0625 363.814 80.5398C363.113 81.017 362.274 81.2557 361.297 81.2557ZM361.297 79.2159C361.963 79.2159 362.496 78.8807 362.893 78.2102C363.291 77.5398 363.488 76.5341 363.484 75.1932C363.484 74.3106 363.393 73.5758 363.211 72.9886C363.033 72.4015 362.78 71.9602 362.45 71.6648C362.124 71.3693 361.74 71.2216 361.297 71.2216C360.634 71.2216 360.104 71.553 359.706 72.2159C359.308 72.8788 359.107 73.8712 359.104 75.1932C359.104 76.0871 359.193 76.8333 359.371 77.4318C359.552 78.0265 359.808 78.4735 360.138 78.7727C360.467 79.0682 360.854 79.2159 361.297 79.2159ZM368.719 81.1477C368.344 81.1477 368.022 81.0152 367.753 80.75C367.488 80.4811 367.355 80.1591 367.355 79.7841C367.355 79.4129 367.488 79.0947 367.753 78.8295C368.022 78.5644 368.344 78.4318 368.719 78.4318C369.082 78.4318 369.4 78.5644 369.673 78.8295C369.946 79.0947 370.082 79.4129 370.082 79.7841C370.082 80.0341 370.018 80.2633 369.889 80.4716C369.764 80.6761 369.599 80.8409 369.395 80.9659C369.19 81.0871 368.965 81.1477 368.719 81.1477ZM376.203 81.1591C375.4 81.1591 374.684 81.0114 374.055 80.7159C373.43 80.4205 372.934 80.0133 372.567 79.4943C372.199 78.9754 372.008 78.3807 371.993 77.7102H374.379C374.406 78.161 374.595 78.5265 374.947 78.8068C375.3 79.0871 375.718 79.2273 376.203 79.2273C376.589 79.2273 376.93 79.142 377.226 78.9716C377.525 78.7973 377.758 78.5568 377.925 78.25C378.095 77.9394 378.18 77.5833 378.18 77.1818C378.18 76.7727 378.093 76.4129 377.919 76.1023C377.748 75.7917 377.512 75.5492 377.209 75.375C376.906 75.2008 376.559 75.1117 376.169 75.108C375.828 75.108 375.497 75.178 375.175 75.3182C374.856 75.4583 374.608 75.6496 374.43 75.892L372.243 75.5L372.794 69.3636H379.907V71.375H374.822L374.521 74.2898H374.589C374.794 74.0019 375.103 73.7633 375.515 73.5739C375.928 73.3845 376.39 73.2898 376.902 73.2898C377.603 73.2898 378.228 73.4545 378.777 73.7841C379.326 74.1136 379.76 74.5663 380.078 75.142C380.396 75.714 380.553 76.3731 380.55 77.1193C380.553 77.9034 380.372 78.6004 380.004 79.2102C379.64 79.8163 379.131 80.2936 378.476 80.642C377.824 80.9867 377.067 81.1591 376.203 81.1591ZM386.828 81.2557C385.851 81.2519 385.01 81.0114 384.305 80.5341C383.604 80.0568 383.065 79.3655 382.686 78.4602C382.311 77.5549 382.125 76.4659 382.129 75.1932C382.129 73.9242 382.317 72.8428 382.692 71.9489C383.07 71.0549 383.61 70.375 384.311 69.9091C385.015 69.4394 385.854 69.2045 386.828 69.2045C387.801 69.2045 388.639 69.4394 389.339 69.9091C390.044 70.3788 390.586 71.0606 390.964 71.9545C391.343 72.8447 391.531 73.9242 391.527 75.1932C391.527 76.4697 391.337 77.5606 390.959 78.4659C390.584 79.3712 390.046 80.0625 389.345 80.5398C388.644 81.017 387.805 81.2557 386.828 81.2557ZM386.828 79.2159C387.495 79.2159 388.027 78.8807 388.425 78.2102C388.822 77.5398 389.019 76.5341 389.015 75.1932C389.015 74.3106 388.925 73.5758 388.743 72.9886C388.565 72.4015 388.311 71.9602 387.981 71.6648C387.656 71.3693 387.271 71.2216 386.828 71.2216C386.165 71.2216 385.635 71.553 385.237 72.2159C384.839 72.8788 384.639 73.8712 384.635 75.1932C384.635 76.0871 384.724 76.8333 384.902 77.4318C385.084 78.0265 385.339 78.4735 385.669 78.7727C385.998 79.0682 386.385 79.2159 386.828 79.2159Z" fill="black"/>
</g>
</g>
<defs>
<filter id="filter0_d_0_1470" x="261.652" y="30" width="177.526" height="108" filterUnits="userSpaceOnUse" color-interpolation-filters="sRGB">
<feFlood flood-opacity="0" result="BackgroundImageFix"/>
<feColorMatrix in="SourceAlpha" type="matrix" values="0 0 0 0 0 0 0 0 0 0 0 0 0 0 0 0 0 0 127 0" result="hardAlpha"/>
<feOffset dy="20"/>
<feGaussianBlur stdDeviation="12"/>
<feColorMatrix type="matrix" values="0 0 0 0 0.6 0 0 0 0 0.607843 0 0 0 0 0.658824 0 0 0 0.18 0"/>
<feBlend mode="normal" in2="BackgroundImageFix" result="effect1_dropShadow_0_1470"/>
<feBlend mode="normal" in="SourceGraphic" in2="effect1_dropShadow_0_1470" result="shape"/>
</filter>
<linearGradient id="paint0_linear_0_1470" x1="-1071.21" y1="-299.319" x2="-1071.63" y2="317.443" gradientUnits="userSpaceOnUse">
<stop stop-color="#23E33E"/>
<stop offset="1" stop-color="white" stop-opacity="0.01"/>
</linearGradient>
<linearGradient id="paint1_linear_0_1470" x1="-1336.22" y1="-347.595" x2="-1336.22" y2="288" gradientUnits="userSpaceOnUse">
<stop stop-color="#0052FF"/>
<stop offset="1" stop-color="white" stop-opacity="0.01"/>
</linearGradient>
<clipPath id="clip0_0_1470">
<rect width="500" height="267" fill="white"/>
</clipPath>
<clipPath id="clip1_0_1470">
<rect width="500" height="261" fill="white"/>
</clipPath>
<clipPath id="clip2_0_1470">
<rect width="500" height="267" fill="white"/>
</clipPath>
<clipPath id="clip3_0_1470">
<rect width="150.179" height="60" fill="white" transform="translate(265 34)"/>
</clipPath>
</defs>
</svg>
