<svg width="24" height="24" viewBox="0 0 24 24" fill="none" xmlns="http://www.w3.org/2000/svg">
<path d="M9 1.84201L15.074 5.38601L22 2.50001V11H20V5.50001L16 7.16701V11H14V7.07401L10 4.74101V16.926L11.868 18.016L10.86 19.743L8.926 18.614L2 21.5V5.92601L9 1.84201ZM8 16.833V4.74101L4 7.07401V18.5L8 16.833ZM18 14C17.2707 14 16.5712 14.2897 16.0555 14.8055C15.5397 15.3212 15.25 16.0207 15.25 16.75C15.25 18.002 15.985 19.204 16.865 20.172C17.272 20.62 17.682 20.986 18 21.247C18.318 20.987 18.728 20.62 19.135 20.172C20.015 19.204 20.75 18.002 20.75 16.75C20.75 16.0207 20.4603 15.3212 19.9445 14.8055C19.4288 14.2897 18.7293 14 18 14ZM18 23.701L17.445 23.332L17.443 23.331L17.439 23.328L17.427 23.32L17.387 23.292L17.25 23.195C16.5757 22.6974 15.9512 22.1358 15.385 21.518C14.39 20.424 13.25 18.751 13.25 16.75C13.25 16.1262 13.3729 15.5086 13.6116 14.9323C13.8503 14.356 14.2002 13.8323 14.6412 13.3913C15.0823 12.9502 15.606 12.6003 16.1823 12.3616C16.7585 12.1229 17.3762 12 18 12C18.6238 12 19.2415 12.1229 19.8177 12.3616C20.394 12.6003 20.9177 12.9502 21.3588 13.3913C21.7998 13.8323 22.1497 14.356 22.3884 14.9323C22.6271 15.5086 22.75 16.1262 22.75 16.75C22.75 18.751 21.61 20.424 20.615 21.518C20.0104 22.1766 19.3396 22.7711 18.613 23.292L18.573 23.32L18.561 23.328L18.557 23.331H18.555L18 23.701ZM16.75 16H19.25V18H16.75V16Z" fill="black"/>
</svg>
