<svg width="24" height="24" viewBox="0 0 24 24" fill="none" xmlns="http://www.w3.org/2000/svg">
<path d="M16.1744 12.916C16.1564 12.908 16.1394 12.899 16.1214 12.892C15.9834 12.83 15.8474 12.765 15.7064 12.709C16.6878 11.9382 17.4044 10.8806 17.7566 9.68345C18.1087 8.48628 18.0788 7.20911 17.671 6.02972C17.2633 4.85034 16.4979 3.82745 15.4815 3.10345C14.4651 2.37944 13.2483 1.99036 12.0004 1.99036C10.7525 1.99036 9.53569 2.37944 8.51931 3.10345C7.50292 3.82745 6.73757 4.85034 6.3298 6.02972C5.92202 7.20911 5.89212 8.48628 6.24425 9.68345C6.59638 10.8806 7.31303 11.9382 8.29441 12.709C8.15441 12.765 8.01741 12.83 7.87941 12.892L7.82541 12.916C6.25613 13.6319 4.89999 14.7436 3.89015 16.1419C2.88031 17.5403 2.25148 19.1772 2.06541 20.892C2.05123 21.0227 2.06292 21.1548 2.09982 21.281C2.13672 21.4071 2.19811 21.5248 2.28048 21.6272C2.36284 21.7296 2.46457 21.8148 2.57987 21.8779C2.69516 21.941 2.82175 21.9808 2.95241 21.995C3.08308 22.0092 3.21526 21.9975 3.34141 21.9606C3.46755 21.9237 3.5852 21.8623 3.68762 21.7799C3.79004 21.6976 3.87524 21.5958 3.93834 21.4805C4.00145 21.3653 4.04123 21.2387 4.05541 21.108C4.19129 19.8545 4.62356 18.6513 5.31649 17.5979C6.00943 16.5445 6.94313 15.6711 8.04041 15.05L11.2924 18.301C11.4799 18.4885 11.7343 18.5938 11.9994 18.5938C12.2646 18.5938 12.5189 18.4885 12.7064 18.301L15.9584 15.05C17.0561 15.6709 17.9902 16.5441 18.6835 17.5975C19.3768 18.651 19.8093 19.8543 19.9454 21.108C19.972 21.3527 20.0879 21.579 20.2709 21.7436C20.454 21.9082 20.6913 21.9995 20.9374 22C20.9742 21.9999 21.0109 21.9979 21.0474 21.994C21.311 21.9653 21.5524 21.8331 21.7186 21.6265C21.8847 21.4198 21.962 21.1556 21.9334 20.892C21.7473 19.1772 21.1185 17.5403 20.1087 16.1419C19.0988 14.7436 17.7437 13.6319 16.1744 12.916ZM8.04141 7.594C8.13544 6.60914 8.59316 5.69469 9.32521 5.02919C10.0573 4.3637 11.0111 3.99495 12.0004 3.99495C12.9897 3.99495 13.9436 4.3637 14.6756 5.02919C15.4077 5.69469 15.8654 6.60914 15.9594 7.594H8.04141ZM12.0004 16.18L10.0634 14.243C11.3344 13.9187 12.6664 13.9187 13.9374 14.243L12.0004 16.18ZM12.0004 12C11.2219 11.9987 10.4606 11.7704 9.80983 11.3431C9.15905 10.9157 8.64701 10.3079 8.33641 9.594H15.6644C15.3538 10.3079 14.8418 10.9157 14.191 11.3431C13.5402 11.7704 12.779 11.9987 12.0004 12Z" fill="black"/>
</svg>
