<svg width="46" height="46" viewBox="0 0 46 46" fill="none" xmlns="http://www.w3.org/2000/svg">
<rect width="46" height="46" fill="white"/>
<circle cx="23" cy="23" r="23" fill="#005B9C"/>
<path fill-rule="evenodd" clip-rule="evenodd" d="M27.4011 14.375L22.244 28.2166L21.6344 25.2358L21.6349 25.2369L19.8144 16.1876C19.8144 16.1876 19.5949 14.375 17.2486 14.375H8.72447L8.625 14.7152C8.625 14.7152 11.2324 15.2406 14.2822 17.0166L18.9814 34.5H24.6169L33.2222 14.375H27.4011" fill="white"/>
<path fill-rule="evenodd" clip-rule="evenodd" d="M22.0417 25.5556L20.1642 16.2407C20.1642 16.2407 19.9378 14.375 17.5182 14.375H8.72758L8.625 14.7252C8.625 14.7252 12.8504 15.5725 16.9039 18.7443C20.778 21.7764 22.0417 25.5556 22.0417 25.5556" fill="#EE9F3F"/>
</svg>
